<?xml version='1.0' encoding='utf-8'?>
<svg xmlns="http://www.w3.org/2000/svg" viewBox="0 0 1000000 994624"><defs><style>.C1 {stroke: #ffffff; stroke-width: 8065; stroke-opacity: 1.000; fill: none; fill-opacity: 1.000;}</style></defs><g stroke-linecap="round" stroke-linejoin="round" fill-rule="evenodd"><path d="M 426839 994329 c -4230 -485 -13351 -2954 -15068 -4078" class="C1" /><path d="M 411771 990250 c -2050 -1343 -6562 -7273 -8114 -10665" class="C1" /><path d="M 403657 979585 c -1111 -2427 -5767 -18685 -5422 -18930" class="C1" /><path d="M 398235 960655 c 51 -36 4934 1430 10851 3257" class="C1" /><path d="M 409087 963912 c 8122 2508 11463 3807 13633 5300" class="C1" /><path d="M 422720 969212 c 1581 1088 3759 2212 4842 2497" class="C1" /><path d="M 427561 971709 c 2798 737 22931 872 63552 426" class="C1" /><path d="M 491113 972136 c 28704 -315 35733 -535 37973 -1186" class="C1" /><path d="M 529087 970949 c 2647 -770 5662 -2749 7632 -5012" class="C1" /><path d="M 536718 965937 c 740 -850 2536 -1324 8471 -2235" class="C1" /><path d="M 545189 963702 c 4142 -636 8693 -1387 10113 -1668" class="C1" /><path d="M 555303 962034 c 4838 -959 4683 -1089 4662 3926" class="C1" /><path d="M 559964 965960 c -22 5159 -1116 11912 -2296 14165" class="C1" /><path d="M 557669 980126 c -2576 4922 -7984 8893 -15182 11150" class="C1" /><path d="M 542487 991276 c -7990 2505 -11506 2729 -34682 2208" class="C1" /><path d="M 507805 993484 c -36625 -824 -54540 -575 -75586 1049" class="C1" /><path d="M 432219 994532 c -1184 91 -3604 -0 -5380 -204" class="C1" /><path d="M 390258 954255 c -19232 -6015 -40656 -12905 -47609 -15311" class="C1" /><path d="M 342649 938944 c -15703 -5434 -19135 -6471 -21422 -6471" class="C1" /><path d="M 321227 932473 c -996 0 -8573 -2101 -16839 -4670" class="C1" /><path d="M 304388 927803 c -12943 -4021 -15335 -4932 -17234 -6557" class="C1" /><path d="M 287154 921246 c -2750 -2354 -3679 -4525 -3679 -8599" class="C1" /><path d="M 283474 912647 c 0 -2705 263 -3572 1748 -5763" class="C1" /><path d="M 285223 906884 c 994 -1465 2646 -3038 3828 -3642" class="C1" /><path d="M 289050 903241 c 4384 -2243 5118 -2104 30736 5804" class="C1" /><path d="M 319786 909045 c 29217 9019 36439 11384 39568 12960" class="C1" /><path d="M 359354 922005 c 1347 678 4978 2126 8069 3218" class="C1" /><path d="M 367424 925223 c 17956 6341 22831 7838 29559 9081" class="C1" /><path d="M 396983 934304 c 3994 738 8352 1728 9683 2200" class="C1" /><path d="M 406666 936504 c 1331 472 4842 1467 7800 2211" class="C1" /><path d="M 414466 938715 c 8312 2090 16477 4561 18610 5633" class="C1" /><path d="M 433077 944349 c 3603 1811 6398 6140 6398 9911" class="C1" /><path d="M 439475 954260 c 0 3851 -3287 8753 -6874 10251" class="C1" /><path d="M 432601 964511 c -3902 1631 -5830 1163 -42343 -10256" class="C1" /><path d="M 426839 994328 l 0 0" class="C1" /><path d="M 524478 962254 c -1271 -520 -3266 -2488 -4014 -3959" class="C1" /><path d="M 520464 958295 c -2540 -4995 -674 -11461 4173 -14457" class="C1" /><path d="M 524637 943838 c 1042 -644 8446 -2709 17630 -4918" class="C1" /><path d="M 542267 938919 c 13667 -3287 17081 -3914 24952 -4579" class="C1" /><path d="M 567219 934340 c 8984 -759 9282 -825 20173 -4492" class="C1" /><path d="M 587392 929849 c 13307 -4479 18327 -5989 26117 -7855" class="C1" /><path d="M 613510 921994 c 37134 -8894 53246 -12652 54230 -12650" class="C1" /><path d="M 667740 909344 c 7865 19 13380 8711 10105 15923" class="C1" /><path d="M 677845 925267 c -894 1968 -1552 2475 -6040 4655" class="C1" /><path d="M 671804 929922 c -5229 2539 -11135 4084 -19869 5195" class="C1" /><path d="M 651936 935117 c -2536 323 -6772 1326 -9414 2230" class="C1" /><path d="M 642521 937347 c -2642 904 -8798 2590 -13680 3746" class="C1" /><path d="M 628841 941093 c -4882 1156 -9724 2361 -10759 2676" class="C1" /><path d="M 618082 943769 c -1036 315 -13987 3477 -28781 7026" class="C1" /><path d="M 589302 950795 c -32701 7844 -61302 12900 -64824 11459" class="C1" /><path d="M 390258 954255 l 0 0" class="C1" /><path d="M 664155 960440 c -3578 -1501 -6304 -3471 -11474 -8290" class="C1" /><path d="M 652681 952150 c -3875 -3612 -8777 -9817 -8777 -11110" class="C1" /><path d="M 643904 941040 c 0 -762 5351 -2102 10759 -2696" class="C1" /><path d="M 654663 938344 c 2811 -308 7410 -1172 10221 -1918" class="C1" /><path d="M 664884 936426 c 2811 -747 6470 -1548 8131 -1781" class="C1" /><path d="M 673015 934644 c 5923 -830 28936 -10741 54541 -23488" class="C1" /><path d="M 727556 911156 c 18312 -9117 19052 -9429 26993 -11410" class="C1" /><path d="M 754549 899746 c 5454 -1361 9010 -2562 10711 -3618" class="C1" /><path d="M 765259 896128 c 3094 -1921 5845 -5777 7026 -9849" class="C1" /><path d="M 772286 886279 c 764 -2633 1520 -3667 5779 -7898" class="C1" /><path d="M 778065 878381 c 6459 -6418 11576 -10337 12192 -9340" class="C1" /><path d="M 790257 869041 c 250 404 1240 3040 2201 5858" class="C1" /><path d="M 792458 874899 c 1635 4794 1744 5573 1700 12117" class="C1" /><path d="M 794158 887016 c -53 7777 -1270 13721 -3637 17760" class="C1" /><path d="M 790521 904775 c -1879 3206 -7054 7771 -11093 9785" class="C1" /><path d="M 779428 914560 c -9141 4557 -21917 9934 -28471 11981" class="C1" /><path d="M 750957 926542 c -3994 1248 -9812 3064 -12929 4035" class="C1" /><path d="M 738028 930577 c -9848 3069 -25493 10801 -37319 18444" class="C1" /><path d="M 700709 949020 c -5664 3660 -16194 8885 -21300 10568" class="C1" /><path d="M 679409 959588 c -6158 2030 -11708 2339 -15254 851" class="C1" /><path d="M 524478 962254 l 0 0" class="C1" /><path d="M 282094 950814 c -7482 -2294 -9833 -3592 -22250 -12293" class="C1" /><path d="M 259845 938521 c -16096 -11278 -26909 -18028 -40671 -25389" class="C1" /><path d="M 219174 913132 c -11205 -5993 -25110 -14194 -32262 -19027" class="C1" /><path d="M 186911 894105 c -4228 -2857 -11384 -10164 -13563 -13850" class="C1" /><path d="M 173348 880255 c -2138 -3615 -3578 -9060 -3256 -12309" class="C1" /><path d="M 170092 867947 c 316 -3190 2223 -7811 6091 -14764" class="C1" /><path d="M 176184 853182 c 4968 -8929 4052 -8693 9383 -2417" class="C1" /><path d="M 185567 850765 c 2515 2960 5722 6718 7128 8351" class="C1" /><path d="M 192694 859116 c 2180 2532 2555 3303 2555 5250" class="C1" /><path d="M 195250 864366 c 0 1255 390 3593 866 5197" class="C1" /><path d="M 196115 869562 c 1205 4057 6323 9059 12583 12298" class="C1" /><path d="M 208699 881860 c 6685 3458 12839 7231 37388 22923" class="C1" /><path d="M 246086 904782 c 12131 7754 25791 16248 30356 18877" class="C1" /><path d="M 664155 960440 l 0 0" class="C1" /><path d="M 289679 928526 c 4339 77 6169 464 15102 3192" class="C1" /><path d="M 304781 931718 c 5590 1707 10282 3198 10427 3313" class="C1" /><path d="M 315208 935032 c 391 310 -10655 10749 -13344 12611" class="C1" /><path d="M 301863 947643 c -2860 1980 -10464 4721 -13009 4690" class="C1" /><path d="M 288854 952332 c -1036 -13 -4077 -696 -6759 -1518" class="C1" /><path d="M 276442 923659 l 8300 4779 l 4938 88" class="C1" /><path d="M 428230 938885 c -715 -289 -5314 -1611 -10221 -2938" class="C1" /><path d="M 418009 935946 c -4907 -1327 -10794 -2969 -13083 -3649" class="C1" /><path d="M 282094 950814 l 0 0" class="C1" /><path d="M 402569 927329 c 992 -2053 3013 -4984 4491 -6513" class="C1" /><path d="M 407060 920816 c 2204 -2279 3353 -2985 6375 -3919" class="C1" /><path d="M 413436 916897 c 2028 -626 5268 -1368 7200 -1647" class="C1" /><path d="M 420636 915250 c 4757 -688 18856 -660 26108 53" class="C1" /><path d="M 446744 915303 c 8092 795 27874 796 34429 0" class="C1" /><path d="M 481173 915303 c 2959 -359 7437 -1119 9952 -1690" class="C1" /><path d="M 491125 913613 c 7727 -1753 14817 -2579 27575 -3211" class="C1" /><path d="M 518700 910402 c 14081 -697 18045 -324 23317 2192" class="C1" /><path d="M 542018 912594 c 4148 1980 9201 7261 12391 12950" class="C1" /><path d="M 554408 925544 c 3712 6621 4541 5754 -8401 8783" class="C1" /><path d="M 546007 934326 c -10513 2460 -11347 2580 -12255 1758" class="C1" /><path d="M 533752 936084 c -536 -485 -2176 -1416 -3645 -2070" class="C1" /><path d="M 530107 934015 c -3673 -1634 -7822 -1555 -14774 281" class="C1" /><path d="M 515333 934296 c -7052 1863 -15121 2408 -36312 2455" class="C1" /><path d="M 479021 936751 c -8580 19 -18869 266 -22863 550" class="C1" /><path d="M 456158 937300 c -3994 284 -11015 769 -15601 1078" class="C1" /><path d="M 440557 938378 c -4586 309 -8944 667 -9683 796" class="C1" /><path d="M 430874 939174 c -740 129 -1929 0 -2644 -291" class="C1" /><path d="M 404926 932297 l -4161 -1236 l 1803 -3732" class="C1" /><path d="M 635619 912711 c -1108 -1108 428 -12448 2141 -15805" class="C1" /><path d="M 637760 896905 c 975 -1911 7868 -8258 11628 -10707" class="C1" /><path d="M 649388 886199 c 1685 -1097 7495 -3883 12911 -6191" class="C1" /><path d="M 662299 880008 c 14215 -6057 32608 -14802 38390 -18253" class="C1" /><path d="M 700689 861755 c 17986 -10733 38760 -21414 45981 -23640" class="C1" /><path d="M 746670 838115 c 9898 -3052 17116 -3052 23344 -6" class="C1" /><path d="M 770014 838109 c 3588 1757 5056 3198 4322 4241" class="C1" /><path d="M 774336 842350 c -284 403 -5010 4586 -10504 9296" class="C1" /><path d="M 763832 851646 c -9067 7774 -10220 8596 -12495 8907" class="C1" /><path d="M 751336 860554 c -3150 432 -7964 2443 -12517 5230" class="C1" /><path d="M 738819 865784 c -4513 2762 -19962 10490 -42770 21394" class="C1" /><path d="M 696049 887178 c -19900 9514 -32907 16375 -35710 18836" class="C1" /><path d="M 660338 906014 c -1006 883 -2634 1775 -3618 1981" class="C1" /><path d="M 656721 907995 c -2793 586 -19468 4567 -20161 4813" class="C1" /><path d="M 636560 912808 c -341 121 -765 76 -941 -101" class="C1" /><path d="M 428230 938883 l 0 0" class="C1" /><path d="M 314574 903682 c -14353 -4404 -14359 -4407 -19097 -7880" class="C1" /><path d="M 295477 895802 c -13206 -9679 -25572 -18151 -32444 -22227" class="C1" /><path d="M 263032 873576 c -1923 -1141 -8570 -5233 -14770 -9095" class="C1" /><path d="M 248262 864481 c -9856 -6138 -12059 -7776 -17522 -13029" class="C1" /><path d="M 230740 851452 c -5642 -5425 -9556 -8280 -11352 -8280" class="C1" /><path d="M 219388 843172 c -1060 0 -16958 -16468 -18276 -18931" class="C1" /><path d="M 201112 824241 c -426 -796 -11 -1195 2627 -2527" class="C1" /><path d="M 203739 821714 c 7141 -3605 13549 -4283 20231 -2141" class="C1" /><path d="M 223970 819573 c 6460 2071 30784 18921 37179 25755" class="C1" /><path d="M 261149 845328 c 2556 2732 8643 7563 15063 11954" class="C1" /><path d="M 276212 857283 c 5831 3989 13149 8145 25822 14664" class="C1" /><path d="M 302034 871947 c 11727 6033 17494 10003 23220 15987" class="C1" /><path d="M 325254 887934 c 2267 2369 3539 4218 4022 5846" class="C1" /><path d="M 329276 893780 c 826 2784 955 12214 185 13455" class="C1" /><path d="M 329461 907235 c -466 750 -2256 323 -14887 -3553" class="C1" /><path d="M 635619 912707 l 0 0" class="C1" /><path d="M 314574 903682 l 0 0" class="C1" /><path d="M 756333 886264 c -7304 -2332 -10421 -9186 -7233 -15905" class="C1" /><path d="M 749101 870359 c 1249 -2633 34410 -31317 41667 -36043" class="C1" /><path d="M 790768 834316 c 3561 -2318 6664 -4973 10221 -8744" class="C1" /><path d="M 800989 825572 c 5240 -5555 50265 -44602 53151 -46094" class="C1" /><path d="M 854140 779478 c 4192 -2168 9148 -1483 12530 1732" class="C1" /><path d="M 866671 781210 c 3101 2947 3776 5028 2821 8705" class="C1" /><path d="M 869492 789915 c -1000 3853 -2633 5515 -13364 13606" class="C1" /><path d="M 856127 803521 c -9050 6824 -16536 13904 -22301 21092" class="C1" /><path d="M 833827 824613 c -2575 3211 -8993 9045 -25274 22976" class="C1" /><path d="M 808553 847588 c -12002 10270 -23274 19740 -25050 21045" class="C1" /><path d="M 783503 868633 c -1775 1305 -4075 3282 -5111 4393" class="C1" /><path d="M 778393 873026 c -2730 2930 -12625 11393 -14383 12302" class="C1" /><path d="M 764010 885328 c -1932 999 -5947 1488 -7677 936" class="C1" /><path d="M 756333 886264 l 0 0" class="C1" /><path d="M 206278 867477 c -2439 -1150 -3984 -2753 -14530 -15077" class="C1" /><path d="M 191747 852400 c -4139 -4837 -8965 -11131 -10723 -13987" class="C1" /><path d="M 181024 838413 c -2464 -4002 -5129 -7168 -11616 -13800" class="C1" /><path d="M 169408 824613 c -5039 -5152 -10688 -11631 -14072 -16139" class="C1" /><path d="M 155336 808474 c -6426 -8561 -18282 -22037 -22794 -25909" class="C1" /><path d="M 132541 782565 c -3068 -2633 -20430 -22396 -22993 -26173" class="C1" /><path d="M 109548 756392 c -5969 -8795 3632 -20325 13499 -16210" class="C1" /><path d="M 123047 740181 c 2559 1067 4613 3055 9699 9387" class="C1" /><path d="M 132745 749568 c 2258 2811 5569 6805 7358 8876" class="C1" /><path d="M 140104 758444 c 1789 2071 5769 7155 8843 11297" class="C1" /><path d="M 148947 769741 c 3075 4142 6505 8742 7623 10221" class="C1" /><path d="M 156570 779963 c 1118 1479 6067 6684 10997 11566" class="C1" /><path d="M 167567 791529 c 9849 9752 24983 26861 29640 33506" class="C1" /><path d="M 197207 825035 c 1635 2333 6188 7594 10117 11690" class="C1" /><path d="M 207324 836725 c 9206 9597 13550 15015 14314 17850" class="C1" /><path d="M 221638 854575 c 1204 4470 -348 8594 -4487 11924" class="C1" /><path d="M 217151 866499 c -2640 2125 -7512 2563 -10874 978" class="C1" /><path d="M 206278 867477 l 0 0" class="C1" /><path d="M 862045 825073 c -4477 -674 -11892 -3645 -16293 -6529" class="C1" /><path d="M 847088 815394 c 1421 -1284 5358 -4441 8748 -7017" class="C1" /><path d="M 855837 808376 c 5622 -4271 6448 -4722 9379 -5123" class="C1" /><path d="M 865215 803253 c 4128 -565 9213 -3324 11409 -6192" class="C1" /><path d="M 876624 797061 c 918 -1198 2587 -4568 3709 -7487" class="C1" /><path d="M 880333 789574 c 3107 -8081 4381 -10333 12590 -22254" class="C1" /><path d="M 892923 767321 c 12667 -18394 18389 -27170 25605 -39271" class="C1" /><path d="M 918528 728050 c 8685 -14565 8852 -14935 8867 -19706" class="C1" /><path d="M 927395 708344 c 0 -2974 418 -4968 1820 -8876" class="C1" /><path d="M 929214 699468 c 1032 -2879 2205 -7710 2734 -11266" class="C1" /><path d="M 931948 688202 c 509 -3424 1105 -6516 1324 -6871" class="C1" /><path d="M 933272 681331 c 276 -447 1458 166 3856 2000" class="C1" /><path d="M 937129 683331 c 8220 6285 15283 16339 16896 24049" class="C1" /><path d="M 954025 707380 c 1645 7863 -3301 17560 -18390 36059" class="C1" /><path d="M 935635 743438 c -6435 7889 -11508 14723 -14963 20157" class="C1" /><path d="M 920672 763596 c -3388 5329 -5014 8477 -12511 24215" class="C1" /><path d="M 908162 787811 c -4262 8948 -15584 26740 -19577 30766" class="C1" /><path d="M 888585 818576 c -2004 2020 -4364 3710 -6742 4828" class="C1" /><path d="M 881842 823404 c -3501 1645 -3972 1724 -10921 1816" class="C1" /><path d="M 870921 825220 c -3994 53 -7989 -13 -8876 -147" class="C1" /><path d="M 845752 818544 l -1247 -817 l 2583 -2334" class="C1" /><path d="M 862045 825073 l 0 0" class="C1" /><path d="M 820700 799076 c -5530 -6121 -4832 -18238 1751 -30410" class="C1" /><path d="M 822451 768666 c 3605 -6665 15825 -23717 26986 -37657" class="C1" /><path d="M 849437 731009 c 6833 -8534 14939 -20767 27980 -42229" class="C1" /><path d="M 877418 688779 c 3530 -5809 7870 -10609 13515 -14946" class="C1" /><path d="M 890932 673833 c 3159 -2428 6370 -3334 11834 -3341" class="C1" /><path d="M 904223 673579 c -588 1701 -2025 6425 -3193 10496" class="C1" /><path d="M 901030 684075 c -1168 4072 -2710 8560 -3427 9975" class="C1" /><path d="M 897604 694050 c -717 1415 -1693 3893 -2168 5508" class="C1" /><path d="M 895435 699558 c -521 1768 -2021 4475 -3772 6806" class="C1" /><path d="M 891663 706364 c -1599 2129 -10240 14825 -19202 28214" class="C1" /><path d="M 872460 734578 c -8962 13389 -18574 27261 -21360 30828" class="C1" /><path d="M 851100 765406 c -5605 7175 -8442 12425 -8985 16623" class="C1" /><path d="M 842116 782029 c -358 2771 -362 2775 -7429 8805" class="C1" /><path d="M 834687 790834 c -3889 3318 -8195 7007 -9569 8197" class="C1" /><path d="M 902766 670492 l 2527 -6 l -1070 3093" class="C1" /><path d="M 97342 786249 c -4427 -1157 -8175 -3350 -11419 -6681" class="C1" /><path d="M 85923 779568 c -1992 -2045 -3934 -5390 -8920 -15366" class="C1" /><path d="M 77002 764202 c -5399 -10801 -6956 -14528 -10182 -24367" class="C1" /><path d="M 66821 739835 c -2272 -6931 -5203 -14525 -7266 -18828" class="C1" /><path d="M 59555 721007 c -3164 -6599 -10848 -19730 -15969 -27288" class="C1" /><path d="M 43586 693718 c -6600 -9741 -12412 -23324 -12412 -29006" class="C1" /><path d="M 31173 664712 c 0 -2434 1966 -7614 4138 -10900" class="C1" /><path d="M 35311 653812 c 2503 -3787 12161 -13354 15057 -14915" class="C1" /><path d="M 825117 799031 l -2499 2164 l -1918 -2123 l 0 3" class="C1" /><path d="M 55408 649118 c 2125 8611 2844 12543 2921 15991" class="C1" /><path d="M 58329 665109 c 93 4133 340 5116 2565 10221" class="C1" /><path d="M 60895 675330 c 6443 14781 15300 33078 20050 41423" class="C1" /><path d="M 80944 716753 c 5950 10452 12226 23146 13405 27114" class="C1" /><path d="M 94349 743866 c 712 2396 1915 6436 2672 8977" class="C1" /><path d="M 97021 752844 c 1065 3572 1893 5207 3651 7204" class="C1" /><path d="M 100673 760048 c 2427 2758 7663 5658 10215 5659" class="C1" /><path d="M 110887 765706 c 1166 0 2393 1107 6411 5783" class="C1" /><path d="M 117298 771490 c 2733 3181 6154 7016 7602 8523" class="C1" /><path d="M 50368 638897 l 2221 -1197 l 2818 11418" class="C1" /><path d="M 124269 784168 c -5604 2430 -9037 3059 -16514 3026" class="C1" /><path d="M 107754 787194 c -4687 -21 -8043 -326 -10412 -945" class="C1" /><path d="M 124900 780013 l 2633 2740 l -3264 1416" class="C1" /><path d="M 97342 786249 l 0 0" class="C1" /><path d="M 630098 841670 c -5246 -705 -9040 -2096 -12834 -4707" class="C1" /><path d="M 617263 836963 c -3908 -2689 -10862 -5900 -20921 -9660" class="C1" /><path d="M 596342 827304 c -19720 -7371 -39710 -11130 -59255 -11141" class="C1" /><path d="M 537087 816163 c -15515 -8 -42611 3535 -50664 6626" class="C1" /><path d="M 486423 822789 c -984 378 -4464 1321 -7733 2097" class="C1" /><path d="M 478690 824885 c -7856 1864 -15144 4207 -19895 6398" class="C1" /><path d="M 458795 831283 c -3642 1679 -4087 1736 -7733 980" class="C1" /><path d="M 451062 832263 c -4727 -980 -5658 -1605 -8984 -6032" class="C1" /><path d="M 442078 826231 c -2269 -3020 -2618 -3956 -2618 -7023" class="C1" /><path d="M 439460 819208 c 0 -12026 -5654 -22346 -17064 -31145" class="C1" /><path d="M 422396 788063 c -5489 -4233 -7472 -8519 -7380 -15950" class="C1" /><path d="M 415016 772112 c 54 -4323 692 -7493 3250 -16139" class="C1" /><path d="M 418265 755974 c 1751 -5918 3585 -12577 4075 -14799" class="C1" /><path d="M 422341 741174 c 1580 -7158 2995 -28418 3154 -47402" class="C1" /><path d="M 425494 693773 c 167 -19962 -247 -23774 -3839 -35303" class="C1" /><path d="M 421655 658469 c -922 -2959 -1681 -5642 -1686 -5962" class="C1" /><path d="M 419969 652507 c -33 -1894 14055 13456 17775 19367" class="C1" /><path d="M 437744 671874 c 2176 3457 5752 11404 9249 20554" class="C1" /><path d="M 446993 692428 c 2573 6732 5244 22515 5244 30990" class="C1" /><path d="M 452236 723418 c 0 8548 -1491 18425 -3974 26324" class="C1" /><path d="M 448263 749742 c -3049 9702 -4095 13687 -4095 15602" class="C1" /><path d="M 444167 765345 c 0 3398 1845 6234 6505 10000" class="C1" /><path d="M 450673 775344 c 5491 4437 7045 6980 9211 15073" class="C1" /><path d="M 459884 790417 c 1933 7223 3138 9245 6550 10985" class="C1" /><path d="M 466434 801402 c 3416 1743 6246 1637 10615 -397" class="C1" /><path d="M 477048 801006 c 3944 -1836 14416 -4623 27602 -7346" class="C1" /><path d="M 504650 793660 c 9714 -2006 31319 -3444 42065 -2800" class="C1" /><path d="M 546715 790859 c 9782 586 30898 6233 42364 11330" class="C1" /><path d="M 589079 802189 c 12168 5408 47488 17331 51341 17331" class="C1" /><path d="M 640420 819520 c 2986 0 7246 -2578 9207 -5572" class="C1" /><path d="M 649628 813947 c 1021 -1558 3384 -4609 5252 -6780" class="C1" /><path d="M 654880 807168 c 3132 -3639 4339 -4408 15532 -9887" class="C1" /><path d="M 670412 797281 c 13781 -6745 33674 -13850 46090 -16460" class="C1" /><path d="M 716502 780821 c 12564 -2641 18071 -6099 20178 -12671" class="C1" /><path d="M 736681 768150 c 1394 -4347 892 -15717 -1072 -24281" class="C1" /><path d="M 735608 743870 c -1232 -5371 -1187 -13688 102 -19122" class="C1" /><path d="M 735711 724748 c 576 -2428 3375 -9214 6220 -15081" class="C1" /><path d="M 751058 742861 c 5274 16131 5974 21042 4060 28482" class="C1" /><path d="M 755118 771343 c -2653 10308 -8754 18414 -16988 22571" class="C1" /><path d="M 738129 793914 c -2438 1231 -8319 3095 -14082 4464" class="C1" /><path d="M 724048 798378 c -5442 1293 -11862 2985 -14265 3762" class="C1" /><path d="M 709782 802140 c -10915 3523 -21399 10673 -38726 26410" class="C1" /><path d="M 671057 828549 c -4233 3844 -9634 8000 -12492 9610" class="C1" /><path d="M 658565 838159 c -4290 2418 -5922 2939 -11035 3525" class="C1" /><path d="M 647530 841684 c -6787 778 -11569 774 -17432 -13" class="C1" /><path d="M 741931 709667 l 5172 -10667 l 384 17055 l 384 17055 l 3188 9750" class="C1" /><path d="M 148899 763672 c -1675 -2283 -4707 -6088 -6738 -8455" class="C1" /><path d="M 142162 755217 c -5784 -6741 -7162 -8667 -7174 -10030" class="C1" /><path d="M 134987 745187 c -23 -2591 -2705 -8764 -6347 -14610" class="C1" /><path d="M 128640 730577 c -4050 -6501 -8401 -14609 -22429 -41798" class="C1" /><path d="M 106212 688779 c -4961 -9616 -10284 -19662 -11829 -22325" class="C1" /><path d="M 94383 666454 c -1545 -2663 -3363 -5810 -4040 -6993" class="C1" /><path d="M 90343 659461 c -678 -1184 -1619 -2757 -2092 -3497" class="C1" /><path d="M 88250 655964 c -473 -740 -2222 -6550 -3887 -12911" class="C1" /><path d="M 84363 643053 c -1664 -6361 -3206 -12111 -3425 -12776" class="C1" /><path d="M 80938 630277 c -379 -1150 -261 -1210 2377 -1210" class="C1" /><path d="M 83315 629066 c 3885 0 10725 1493 12865 2809" class="C1" /><path d="M 96180 631875 c 988 608 3728 3311 6088 6007" class="C1" /><path d="M 102268 637882 c 3368 3848 4967 6291 7435 11358" class="C1" /><path d="M 109703 649239 c 15184 31176 18689 38059 22350 43891" class="C1" /><path d="M 132053 693130 c 11902 18957 21884 36909 24482 44026" class="C1" /><path d="M 156535 737156 c 3638 9968 4068 18042 1291 24231" class="C1" /><path d="M 157826 761387 c -1287 2867 -4385 6505 -5497 6454" class="C1" /><path d="M 152329 767841 c -212 -11 -1755 -1886 -3430 -4169" class="C1" /><path d="M 630098 841671 l 0 0" class="C1" /><path d="M 599502 768006 c -925 -164 -3043 -646 -4707 -1072" class="C1" /><path d="M 594795 766934 c -1664 -426 -7111 -808 -12104 -850" class="C1" /><path d="M 582691 766083 c -10060 -85 -12931 -785 -19532 -4765" class="C1" /><path d="M 563159 761318 c -3677 -2217 -3814 -2243 -9750 -1862" class="C1" /><path d="M 553409 759456 c -7858 505 -12591 -512 -17676 -3798" class="C1" /><path d="M 535733 755658 c -3938 -2545 -4120 -2590 -9963 -2483" class="C1" /><path d="M 525770 753175 c -5369 98 -6334 -84 -9846 -1864" class="C1" /><path d="M 515924 751311 c -2141 -1085 -6075 -3839 -8742 -6120" class="C1" /><path d="M 148899 763672 l 0 0" class="C1" /><path d="M 495631 740205 c -10309 -1292 -14528 -2836 -18441 -6748" class="C1" /><path d="M 477190 733456 c -3787 -3787 -6829 -9496 -7266 -13636" class="C1" /><path d="M 469924 719820 c -250 -2369 213 -3895 2755 -9076" class="C1" /><path d="M 507182 745191 l -4848 -4147 l -6702 -840" class="C1" /><path d="M 475333 698304 c -384 -5936 -305 -6442 1779 -11391" class="C1" /><path d="M 477112 686913 c 3316 -7874 8612 -12328 14462 -12164" class="C1" /><path d="M 491574 674749 c 1479 42 7683 275 13785 518" class="C1" /><path d="M 505360 675267 c 6102 243 19719 160 30260 -185" class="C1" /><path d="M 535619 675082 c 17682 -579 19419 -744 22449 -2135" class="C1" /><path d="M 558068 672947 c 2469 -1134 5221 -1634 11095 -2015" class="C1" /><path d="M 569163 670932 c 6767 -440 8441 -798 12519 -2681" class="C1" /><path d="M 581682 668251 c 6968 -3218 9163 -3913 14864 -4705" class="C1" /><path d="M 596545 663546 c 3845 -535 6392 -1390 9946 -3338" class="C1" /><path d="M 606492 660207 c 2628 -1441 6859 -3255 9402 -4032" class="C1" /><path d="M 615894 656175 c 5631 -1721 17468 -2840 24491 -2315" class="C1" /><path d="M 640384 653860 c 4704 351 5652 198 10321 -1670" class="C1" /><path d="M 650705 652190 c 6353 -2541 14017 -3964 24110 -4477" class="C1" /><path d="M 674815 647714 c 4253 -216 11062 -977 15130 -1691" class="C1" /><path d="M 689945 646023 c 8418 -1477 23174 -3360 26312 -3358" class="C1" /><path d="M 716258 642665 c 1157 0 3856 -800 5998 -1781" class="C1" /><path d="M 722255 640884 c 5633 -2579 11954 -2589 17451 -28" class="C1" /><path d="M 739706 640857 c 7765 3619 11802 9259 13490 18850" class="C1" /><path d="M 753196 659707 c 1870 10628 853 20939 -2774 28102" class="C1" /><path d="M 750422 687809 c -2065 4078 -7106 11729 -11685 17732" class="C1" /><path d="M 738737 705540 c -1693 2219 -4976 7108 -7296 10864" class="C1" /><path d="M 731441 716404 c -2320 3756 -5287 7644 -6593 8640" class="C1" /><path d="M 724849 725044 c -2041 1557 -2770 1747 -5190 1352" class="C1" /><path d="M 719659 726396 c -6048 -986 -8747 -722 -11557 1129" class="C1" /><path d="M 708101 727526 c -1479 975 -4385 2113 -6456 2529" class="C1" /><path d="M 701645 730054 c -4190 841 -5971 2347 -8984 7593" class="C1" /><path d="M 692661 737648 c -2154 3751 -6287 7560 -10965 10107" class="C1" /><path d="M 681696 747754 c -2815 1532 -4586 1911 -11170 2387" class="C1" /><path d="M 472679 710744 l 3056 -6228 l -402 -6212" class="C1" /><path d="M 657464 755803 c -4418 4299 -5855 5276 -9191 6246" class="C1" /><path d="M 648274 762049 c -5049 1468 -9106 1064 -17188 -1712" class="C1" /><path d="M 670526 750141 l -7824 566 l -5237 5096" class="C1" /><path d="M 621427 761880 c -4817 5164 -6898 6083 -14192 6269" class="C1" /><path d="M 607235 768149 c -3329 85 -6808 21 -7733 -143" class="C1" /><path d="M 631085 760337 l -6225 -2137 l -3433 3680" class="C1" /><path d="M 612646 759035 c 4834 -3650 5687 -6325 5674 -17806" class="C1" /><path d="M 618320 741228 c -11 -9490 -436 -11105 -3526 -13399" class="C1" /><path d="M 614794 727829 c -1775 -1318 -2121 -1339 -8069 -491" class="C1" /><path d="M 606725 727337 c -3418 487 -8714 1033 -11768 1213" class="C1" /><path d="M 594957 728551 c -4941 292 -5701 515 -6893 2030" class="C1" /><path d="M 588064 730581 c -2383 3030 -1457 10520 2308 18669" class="C1" /><path d="M 590373 749249 c 513 1110 1307 3288 1765 4842" class="C1" /><path d="M 592138 754091 c 458 1553 1691 3647 2740 4652" class="C1" /><path d="M 594878 758743 c 1845 1768 4527 2373 12632 2851" class="C1" /><path d="M 607510 761594 c 955 56 3064 -995 5136 -2559" class="C1" /><path d="M 599502 768006 l 0 0" class="C1" /><path d="M 583551 758384 c 2559 -973 3847 -2662 3847 -5043" class="C1" /><path d="M 587398 753340 c 0 -3426 -1977 -4762 -7055 -4768" class="C1" /><path d="M 580343 748572 c -4115 -8 -4312 -87 -7676 -3234" class="C1" /><path d="M 572667 745338 c -2999 -2805 -3773 -3202 -5894 -3021" class="C1" /><path d="M 566773 742317 c -3175 270 -5320 2908 -4634 5697" class="C1" /><path d="M 562139 748014 c 640 2601 7138 8631 10636 9869" class="C1" /><path d="M 572775 757883 c 3280 1161 8412 1400 10776 501" class="C1" /><path d="M 612646 759035 l 0 0" class="C1" /><path d="M 647451 754284 c 2482 -929 4296 -2198 5778 -4042" class="C1" /><path d="M 653229 750242 c 3572 -4445 4030 -6252 3812 -15037" class="C1" /><path d="M 657041 735205 c -172 -6943 -368 -8095 -1578 -9305" class="C1" /><path d="M 655463 725900 c -1886 -1886 -7110 -2348 -10505 -930" class="C1" /><path d="M 644958 724970 c -1898 793 -4783 1080 -10859 1080" class="C1" /><path d="M 634099 726050 c -8221 0 -8284 13 -9725 1844" class="C1" /><path d="M 624374 727894 c -1237 1572 -1390 2391 -1036 5548" class="C1" /><path d="M 623338 733442 c 683 6095 2980 12444 5617 15525" class="C1" /><path d="M 628955 748967 c 2727 3185 9369 6669 12718 6670" class="C1" /><path d="M 641672 755637 c 1188 0 3788 -609 5778 -1353" class="C1" /><path d="M 583551 758384 l 0 0" class="C1" /><path d="M 551093 751935 c 2242 -1159 5077 -5640 6445 -10184" class="C1" /><path d="M 557538 741751 c 819 -2720 803 -3591 -122 -6886" class="C1" /><path d="M 557416 734865 c -582 -2075 -1224 -4529 -1427 -5453" class="C1" /><path d="M 555989 729412 c -586 -2677 -2851 -4707 -5253 -4707" class="C1" /><path d="M 550736 724705 c -2724 0 -4047 1490 -5400 6084" class="C1" /><path d="M 545336 730789 c -594 2017 -1935 6031 -2979 8922" class="C1" /><path d="M 542357 739710 c -1518 4202 -1777 5694 -1293 7447" class="C1" /><path d="M 541064 747157 c 909 3291 3549 5387 7197 5712" class="C1" /><path d="M 548261 752870 c 481 43 1755 -378 2832 -934" class="C1" /><path d="M 647451 754284 l 0 0" class="C1" /><path d="M 530925 743702 c 2414 -3067 6712 -12562 6712 -14827" class="C1" /><path d="M 537637 728874 c 0 -1501 -475 -2432 -1626 -3186" class="C1" /><path d="M 536011 725688 c -1873 -1227 -11332 -3284 -18334 -3988" class="C1" /><path d="M 517676 721700 c -4275 -429 -4942 -335 -6143 865" class="C1" /><path d="M 511534 722566 c -1606 1606 -3088 8092 -2481 10857" class="C1" /><path d="M 509053 733423 c 627 2855 9611 10586 12952 11144" class="C1" /><path d="M 522004 744567 c 1386 232 2822 524 3192 650" class="C1" /><path d="M 525197 745217 c 2242 760 4384 194 5729 -1515" class="C1" /><path d="M 551093 751935 l 0 0" class="C1" /><path d="M 579682 734870 c -637 -3926 -1909 -10770 -2826 -15208" class="C1" /><path d="M 576856 719662 c -2045 -9896 -2700 -20813 -1643 -27402" class="C1" /><path d="M 575213 692260 c 430 -2682 851 -6528 936 -8547" class="C1" /><path d="M 576149 683713 c 142 -3392 16 -3739 -1665 -4561" class="C1" /><path d="M 574483 679152 c -2957 -1446 -10267 183 -13361 2979" class="C1" /><path d="M 561122 682130 c -3158 2853 -6451 10089 -7798 17132" class="C1" /><path d="M 553324 699262 c -2159 11294 405 21069 8392 31992" class="C1" /><path d="M 561716 731255 c 3256 4453 5680 6351 13238 10368" class="C1" /><path d="M 574954 741622 c 6035 3207 6286 2848 4728 -6752" class="C1" /><path d="M 530925 743702 l 0 0" class="C1" /><path d="M 680145 740197 c 3502 -1786 6228 -5416 9917 -13205" class="C1" /><path d="M 690062 726992 c 3934 -8306 4409 -11607 2012 -14004" class="C1" /><path d="M 692075 712988 c -2437 -2437 -5117 -2238 -13346 992" class="C1" /><path d="M 678729 713980 c -3817 1498 -8390 2904 -10161 3123" class="C1" /><path d="M 668568 717103 c -2382 295 -3581 856 -4600 2151" class="C1" /><path d="M 663968 719254 c -1566 1991 -1479 3311 700 10626" class="C1" /><path d="M 664668 729880 c 1733 5818 3755 8929 6799 10458" class="C1" /><path d="M 671467 740338 c 3040 1527 5485 1488 8678 -142" class="C1" /><path d="M 579682 734870 l 0 0" class="C1" /><path d="M 497937 732452 c 1459 -755 1835 -1337 1554 -2410" class="C1" /><path d="M 499491 730041 c -204 -778 166 -3971 822 -7096" class="C1" /><path d="M 500313 722946 c 656 -3125 1076 -5777 934 -5894" class="C1" /><path d="M 501247 717051 c -800 -660 -17228 -8485 -17814 -8485" class="C1" /><path d="M 483433 708566 c -1767 0 -6316 7252 -6316 10070" class="C1" /><path d="M 477117 718636 c 0 1960 3578 8052 6252 10643" class="C1" /><path d="M 483368 729280 c 2027 1965 6338 3426 12106 4104" class="C1" /><path d="M 495474 733384 c 296 35 1404 -385 2462 -932" class="C1" /><path d="M 680145 740197 l 0 0" class="C1" /><path d="M 605186 723570 c 3315 -746 5223 -1599 6556 -2933" class="C1" /><path d="M 611742 720637 c 1752 -1752 1881 -2255 1881 -7378" class="C1" /><path d="M 613623 713259 c 0 -4251 -749 -8645 -3304 -19384" class="C1" /><path d="M 610319 693875 c -1817 -7638 -3495 -15021 -3728 -16406" class="C1" /><path d="M 606591 677468 c -234 -1386 -1138 -3348 -2009 -4361" class="C1" /><path d="M 604581 673107 c -3053 -3549 -9646 -1721 -15089 4184" class="C1" /><path d="M 589493 677291 c -5612 6088 -7236 12913 -6561 27566" class="C1" /><path d="M 582932 704857 c 701 15220 1796 18287 7057 19762" class="C1" /><path d="M 589989 724619 c 2898 812 8705 411 15197 -1050" class="C1" /><path d="M 497937 732452 l 0 0" class="C1" /><path d="M 631003 722070 c 634 -339 4926 -981 9538 -1425" class="C1" /><path d="M 640541 720645 c 9863 -950 13824 -2338 14513 -5084" class="C1" /><path d="M 655055 715561 c 485 -1931 -805 -9863 -2996 -18426" class="C1" /><path d="M 652059 697135 c -710 -2774 -1658 -7464 -2107 -10423" class="C1" /><path d="M 649952 686712 c -1777 -11711 -6225 -21773 -11103 -25116" class="C1" /><path d="M 638849 661596 c -3621 -2481 -6095 -2872 -11304 -1785" class="C1" /><path d="M 627545 659811 c -8124 1694 -15250 6280 -15281 9833" class="C1" /><path d="M 612264 669644 c -8 881 1361 4325 3042 7654" class="C1" /><path d="M 615306 677298 c 2582 5114 3363 7659 5037 16424" class="C1" /><path d="M 620343 693722 c 1090 5705 2190 13861 2445 18125" class="C1" /><path d="M 622787 711847 c 409 6846 644 7934 2007 9297" class="C1" /><path d="M 624795 721144 c 1602 1602 4217 1993 6209 926" class="C1" /><path d="M 605186 723570 l 0 0" class="C1" /><path d="M 706548 719509 c 1639 -1430 3234 -6610 3234 -10505" class="C1" /><path d="M 709782 709004 c 0 -4083 -1319 -5817 -4426 -5817" class="C1" /><path d="M 705356 703187 c -2754 0 -4988 2585 -4988 5773" class="C1" /><path d="M 700368 708960 c 0 1226 -335 3793 -745 5703" class="C1" /><path d="M 699623 714663 c -545 2539 -545 3912 -0 5107" class="C1" /><path d="M 699623 719770 c 659 1447 1032 1582 3267 1182" class="C1" /><path d="M 702889 720952 c 1387 -249 3034 -898 3659 -1443" class="C1" /><path d="M 631003 722070 l 0 0" class="C1" /><path d="M 544208 716998 c 1891 -1591 1982 -1934 2371 -8910" class="C1" /><path d="M 546578 708088 c 228 -4090 1021 -9455 1818 -12298" class="C1" /><path d="M 548396 695790 c 2309 -8233 2312 -8324 454 -10483" class="C1" /><path d="M 706548 719509 l 0 0" class="C1" /><path d="M 517008 685844 c -2879 2879 -3427 5546 -3523 17143" class="C1" /><path d="M 513486 702987 c -89 10758 -244 10618 14401 12991" class="C1" /><path d="M 527886 715978 c 4808 779 9650 1669 10759 1977" class="C1" /><path d="M 538645 717955 c 3124 868 3462 810 5562 -957" class="C1" /><path d="M 548849 685307 l -1685 -1957 l -13831 0 l -13831 0 l -2494 2494" class="C1" /><path d="M 724866 712097 c 2571 -3539 3744 -7267 3744 -11897" class="C1" /><path d="M 728611 700199 c 0 -5663 -4209 -7511 -8508 -3737" class="C1" /><path d="M 720103 696462 c -1264 1110 -2579 2017 -2923 2017" class="C1" /><path d="M 717180 698480 c -1450 0 -1934 2471 -999 5094" class="C1" /><path d="M 716180 703574 c 517 1451 958 4152 980 6001" class="C1" /><path d="M 717160 709575 c 45 3821 466 4747 2373 5224" class="C1" /><path d="M 719533 714799 c 2636 659 3041 454 5334 -2702" class="C1" /><path d="M 544208 716998 l 0 0" class="C1" /><path d="M 678962 708133 c 8409 -2794 14723 -6538 16494 -9783" class="C1" /><path d="M 695456 698350 c 932 -1708 1200 -3628 1155 -8276" class="C1" /><path d="M 696611 690074 c -50 -5189 -417 -7059 -2569 -13113" class="C1" /><path d="M 694042 676962 c -5548 -15610 -10151 -22374 -16524 -24284" class="C1" /><path d="M 677518 652678 c -5406 -1620 -15677 1076 -22203 5827" class="C1" /><path d="M 655314 658505 c -4271 3110 -4607 130 3938 34913" class="C1" /><path d="M 659252 693418 c 3432 13969 3956 15529 5476 16297" class="C1" /><path d="M 664729 709715 c 2784 1406 6475 995 14233 -1582" class="C1" /><path d="M 724866 712097 l 0 0" class="C1" /><path d="M 502942 708473 c 2229 -1015 3786 -4473 4471 -9925" class="C1" /><path d="M 507413 698548 c 308 -2452 878 -5877 1266 -7611" class="C1" /><path d="M 508679 690937 c 759 -3387 257 -5678 -1577 -7200" class="C1" /><path d="M 507102 683737 c -1527 -1267 -13216 -623 -17032 939" class="C1" /><path d="M 490070 684676 c -1567 641 -3789 2236 -4937 3544" class="C1" /><path d="M 485133 688221 c -1899 2163 -2048 2658 -1642 5478" class="C1" /><path d="M 483490 693699 c 886 6161 1992 7436 10101 11656" class="C1" /><path d="M 493592 705355 c 4068 2117 7458 3857 7533 3867" class="C1" /><path d="M 501125 709221 c 75 11 893 -327 1817 -748" class="C1" /><path d="M 678962 708133 l 0 0" class="C1" /><path d="M 738858 689738 c 4820 -9488 5891 -13279 5891 -20846" class="C1" /><path d="M 744749 668892 c 0 -6049 -2129 -16205 -4064 -19387" class="C1" /><path d="M 740685 649505 c -2102 -3456 -3999 -3953 -7833 -2053" class="C1" /><path d="M 732853 647452 c -1778 882 -3607 2360 -4064 3284" class="C1" /><path d="M 728789 650736 c -1404 2841 -1025 10903 815 17357" class="C1" /><path d="M 729604 668093 c 1825 6402 3714 20117 3714 26971" class="C1" /><path d="M 733318 695064 c 0 2737 236 4120 635 3719" class="C1" /><path d="M 733953 698782 c 349 -351 2557 -4421 4905 -9044" class="C1" /><path d="M 502942 708473 l 0 0" class="C1" /><path d="M 713605 694402 c 2278 -861 5210 -3560 6989 -6434" class="C1" /><path d="M 720594 687969 c 3498 -5651 2828 -15595 -1786 -26526" class="C1" /><path d="M 718808 661443 c -1919 -4546 -3912 -8104 -5394 -9631" class="C1" /><path d="M 713414 651812 c -2244 -2310 -2558 -2420 -6858 -2405" class="C1" /><path d="M 706556 649408 c -8706 31 -13585 2219 -13585 6091" class="C1" /><path d="M 692971 655498 c 0 1011 751 3303 1668 5094" class="C1" /><path d="M 694640 660593 c 1779 3473 5321 16966 6061 23093" class="C1" /><path d="M 700701 683686 c 610 5048 1451 8121 2715 9919" class="C1" /><path d="M 703416 693605 c 878 1250 1693 1513 4680 1513" class="C1" /><path d="M 708096 695118 c 1989 0 4468 -322 5510 -715" class="C1" /><path d="M 738858 689738 l 0 0" class="C1" /><path d="M 904345 714563 c -4897 -3270 -5719 -4695 -5719 -9914" class="C1" /><path d="M 898626 704649 c 0 -3916 203 -4746 2260 -9223" class="C1" /><path d="M 900886 695426 c 1243 -2705 2776 -6942 3406 -9414" class="C1" /><path d="M 904292 686012 c 1375 -5394 6153 -19396 8785 -25744" class="C1" /><path d="M 913077 660268 c 1874 -4520 2426 -6333 7860 -25822" class="C1" /><path d="M 920937 634446 c 5211 -18689 22858 -74879 24369 -77593" class="C1" /><path d="M 945306 556853 c 4175 -7498 16273 -6682 20384 1376" class="C1" /><path d="M 965690 558229 c 1915 3754 1258 7809 -2696 16632" class="C1" /><path d="M 962994 574861 c -1819 4059 -3811 9218 -4427 11463" class="C1" /><path d="M 958567 586324 c -616 2245 -1486 4958 -1934 6029" class="C1" /><path d="M 956633 592353 c -448 1071 -2345 8620 -4217 16775" class="C1" /><path d="M 952416 609128 c -1872 8155 -4535 18338 -5917 22628" class="C1" /><path d="M 946499 631756 c -1382 4290 -3539 11197 -4795 15348" class="C1" /><path d="M 941705 647104 c -1255 4151 -3986 11777 -6070 16946" class="C1" /><path d="M 935635 664049 c -4475 11104 -6302 17142 -7402 24461" class="C1" /><path d="M 928233 688510 c -879 5854 -5829 20544 -8089 24008" class="C1" /><path d="M 920144 712519 c -1754 2689 -5132 4234 -9253 4234" class="C1" /><path d="M 910890 716753 c -2924 0 -3609 -229 -6545 -2190" class="C1" /><path d="M 713605 694402 l 0 0" class="C1" /><path d="M 70895 673081 c -2603 -693 -5942 -3610 -7071 -6177" class="C1" /><path d="M 63824 666903 c -839 -1908 -12506 -49323 -14538 -59086" class="C1" /><path d="M 49285 607817 c -4055 -19479 -5268 -24656 -6490 -27705" class="C1" /><path d="M 42795 580112 c -1847 -4606 -12163 -46790 -12148 -49673" class="C1" /><path d="M 30647 530440 c 30 -5742 5353 -11110 11016 -11110" class="C1" /><path d="M 41664 519329 c 3773 0 8108 2800 9906 6399" class="C1" /><path d="M 51570 525728 c 1411 2824 3703 13063 4100 18319" class="C1" /><path d="M 55669 544047 c 706 9350 3651 21287 9046 36672" class="C1" /><path d="M 64715 580719 c 2934 8368 5710 20164 6819 28981" class="C1" /><path d="M 71534 609700 c 724 5755 3198 15196 5345 20396" class="C1" /><path d="M 76879 630096 c 1986 4810 8095 29408 8078 32526" class="C1" /><path d="M 84957 662622 c -25 4739 -3677 9330 -8361 10509" class="C1" /><path d="M 76596 673131 c -2659 670 -3010 666 -5701 -51" class="C1" /><path d="M 904345 714563 l 0 0" class="C1" /><path d="M 460125 681164 c 804 -2874 393 -14076 -724 -19733" class="C1" /><path d="M 459401 661431 c -1356 -6870 -3416 -11029 -7492 -15127" class="C1" /><path d="M 451909 646304 c -3947 -3968 -10474 -6824 -20708 -9060" class="C1" /><path d="M 431201 637244 c -3409 -745 -9400 -2099 -13314 -3009" class="C1" /><path d="M 417887 634235 c -8775 -2041 -8994 -2040 -13128 18" class="C1" /><path d="M 404760 634253 c -2422 1207 -4237 2869 -6503 5956" class="C1" /><path d="M 398256 640210 c -1729 2355 -4398 5536 -5930 7068" class="C1" /><path d="M 392327 647277 c -2688 2688 -2937 2786 -7106 2786" class="C1" /><path d="M 385221 650063 c -2376 0 -6653 -479 -9503 -1065" class="C1" /><path d="M 375718 648998 c -10833 -2226 -17345 -6076 -32025 -18933" class="C1" /><path d="M 343693 630065 c -8002 -7008 -9129 -7679 -17876 -10632" class="C1" /><path d="M 325817 619433 c -6190 -2090 -6447 -2259 -8273 -5432" class="C1" /><path d="M 317544 614000 c -1802 -3131 -1870 -3566 -1540 -9856" class="C1" /><path d="M 316004 604145 c 299 -5708 624 -7104 2451 -10531" class="C1" /><path d="M 318455 593614 c 3022 -5669 11782 -12512 18545 -14486" class="C1" /><path d="M 337000 579128 c 3317 -968 7522 -3637 5804 -3684" class="C1" /><path d="M 342804 575444 c -1153 -31 -12044 3496 -20625 6680" class="C1" /><path d="M 322179 582124 c -21820 8094 -37394 10126 -61926 8076" class="C1" /><path d="M 260254 590200 c -23995 -2004 -31067 -5210 -47444 -21503" class="C1" /><path d="M 212810 568697 c -8188 -8146 -11100 -11631 -17700 -21182" class="C1" /><path d="M 195109 547515 c -4345 -6287 -9717 -14004 -11938 -17147" class="C1" /><path d="M 183171 530368 c -6908 -9777 -16968 -26331 -18162 -29889" class="C1" /><path d="M 165009 500479 c -2192 -6529 -4129 -22827 -3720 -31304" class="C1" /><path d="M 161289 469176 c 467 -9676 3543 -30342 6507 -43709" class="C1" /><path d="M 167796 425467 c 2254 -10165 3956 -20570 5028 -30737" class="C1" /><path d="M 172824 394729 c 577 -5470 1645 -13123 2373 -17006" class="C1" /><path d="M 175197 377723 c 729 -3883 2689 -15055 4356 -24825" class="C1" /><path d="M 179554 352898 c 4671 -27368 12099 -55096 21181 -79067" class="C1" /><path d="M 200735 273831 c 1541 -4068 5183 -13969 8092 -22001" class="C1" /><path d="M 208826 251829 c 6145 -16968 8346 -21587 15314 -32130" class="C1" /><path d="M 224141 219700 c 7098 -10740 15636 -19001 28589 -27661" class="C1" /><path d="M 252730 192038 c 11166 -7465 15047 -9544 28056 -15030" class="C1" /><path d="M 280786 177008 c 18744 -7905 38052 -13616 54445 -16104" class="C1" /><path d="M 335231 160904 c 3883 -589 14626 -2271 23872 -3737" class="C1" /><path d="M 359103 157168 c 9246 -1466 19988 -2985 23872 -3375" class="C1" /><path d="M 382975 153792 c 11277 -1134 159260 -1745 168832 -697" class="C1" /><path d="M 551807 153096 c 4461 489 13607 2343 21806 4421" class="C1" /><path d="M 573613 157517 c 7767 1969 17450 4241 21518 5050" class="C1" /><path d="M 595131 162567 c 15073 2997 31676 10753 42171 19701" class="C1" /><path d="M 637301 182268 c 1806 1540 7462 7641 12569 13559" class="C1" /><path d="M 649871 195827 c 5107 5918 13105 14844 17772 19837" class="C1" /><path d="M 667643 215664 c 7535 8059 42490 47649 50080 56721" class="C1" /><path d="M 717723 272385 c 4606 5505 12635 19499 15643 27265" class="C1" /><path d="M 733366 299650 c 1519 3922 4986 14847 7704 24278" class="C1" /><path d="M 741070 323928 c 4885 16947 10337 33642 13012 39842" class="C1" /><path d="M 754083 363770 c 758 1757 1083 3194 722 3194" class="C1" /><path d="M 754805 366964 c -1200 0 -11526 -10361 -14409 -14458" class="C1" /><path d="M 740396 352507 c -3388 -4814 -13356 -23810 -17483 -33318" class="C1" /><path d="M 722913 319188 c -8384 -19314 -20469 -34657 -48175 -61160" class="C1" /><path d="M 674738 258028 c -7539 -7212 -20970 -20235 -29846 -28940" class="C1" /><path d="M 644892 229088 c -25619 -25124 -33395 -30858 -49311 -36357" class="C1" /><path d="M 70895 673080 l 0 0" class="C1" /><path d="M 587858 193582 c -5714 2885 -12523 9681 -18027 17996" class="C1" /><path d="M 569831 211577 c -4918 7429 -5265 8322 -6985 17963" class="C1" /><path d="M 562846 229540 c -1709 9582 -489 12347 10725 24306" class="C1" /><path d="M 573571 253846 c 6956 7418 7493 8612 6963 15469" class="C1" /><path d="M 580534 269316 c -289 3740 -3824 16284 -4589 16284" class="C1" /><path d="M 575946 285599 c -1274 0 -1950 -5019 -1589 -11794" class="C1" /><path d="M 574357 273805 c 492 -9244 495 -9238 -12070 -25307" class="C1" /><path d="M 562287 248497 c -10534 -13472 -11979 -14606 -17171 -13466" class="C1" /><path d="M 545116 235032 c -1710 375 -6286 1652 -10169 2836" class="C1" /><path d="M 534947 237868 c -6408 1954 -7867 2152 -15788 2142" class="C1" /><path d="M 519159 240009 c -9797 -13 -11740 566 -13534 4035" class="C1" /><path d="M 505625 244044 c -1148 2220 -1103 3958 367 14321" class="C1" /><path d="M 505992 258365 c 1206 8499 910 12330 -1432 18532" class="C1" /><path d="M 504561 276897 c -1941 5140 -2147 6408 -2185 13409" class="C1" /><path d="M 502375 290306 c -40 7274 76 7966 1945 11654" class="C1" /><path d="M 504320 301960 c 2124 4193 10725 14917 14911 18592" class="C1" /><path d="M 519231 320552 c 3702 3251 10095 6000 16495 7095" class="C1" /><path d="M 535726 327647 c 3085 528 12418 1902 20739 3054" class="C1" /><path d="M 556465 330701 c 18718 2591 32748 5376 35729 7091" class="C1" /><path d="M 592195 337792 c 2949 1697 7431 8550 10042 15354" class="C1" /><path d="M 602236 353147 c 2869 7476 5400 15304 5171 15990" class="C1" /><path d="M 607407 369137 c -105 315 -1397 -1029 -2871 -2985" class="C1" /><path d="M 604536 366152 c -4748 -6302 -14658 -16107 -19305 -19103" class="C1" /><path d="M 585231 347049 c -9075 -5850 -11038 -6355 -28766 -7400" class="C1" /><path d="M 556465 339648 c -17506 -1032 -30476 -2913 -34608 -5019" class="C1" /><path d="M 521857 334629 c -3255 -1659 -12128 -11350 -15954 -17425" class="C1" /><path d="M 505903 317204 c -1514 -2404 -3340 -6104 -4058 -8222" class="C1" /><path d="M 501845 308982 c -2355 -6947 -5622 -10427 -10388 -11066" class="C1" /><path d="M 491458 297916 c -3873 -519 -6208 917 -14341 8822" class="C1" /><path d="M 477117 306739 c -6453 6272 -12043 11014 -19141 16237" class="C1" /><path d="M 595581 192731 l -3584 -1239 l -4139 2089" class="C1" /><path d="M 456913 322247 c 4192 -7035 17174 -24008 20455 -26745" class="C1" /><path d="M 477369 295502 c 786 -656 3698 -2259 6470 -3563" class="C1" /><path d="M 483839 291939 c 5727 -2694 8273 -4846 10229 -8651" class="C1" /><path d="M 494068 283288 c 1911 -3718 3172 -11582 3199 -19965" class="C1" /><path d="M 497267 263323 c 21 -6077 -278 -8126 -1994 -13700" class="C1" /><path d="M 495273 249624 c -2384 -7744 -2449 -8959 -666 -12453" class="C1" /><path d="M 494607 237170 c 2073 -4064 4259 -4846 15123 -5411" class="C1" /><path d="M 509730 231759 c 11201 -582 23997 -2780 29588 -5082" class="C1" /><path d="M 539318 226677 c 2219 -914 5583 -2259 7475 -2989" class="C1" /><path d="M 546792 223688 c 1915 -739 4677 -2577 6230 -4146" class="C1" /><path d="M 553023 219542 c 3089 -3120 7939 -12472 10035 -19350" class="C1" /><path d="M 563057 200192 c 734 -2408 2274 -6228 3423 -8489" class="C1" /><path d="M 566480 191703 c 1149 -2261 2089 -4269 2089 -4462" class="C1" /><path d="M 568569 187241 c 0 -1180 -36310 -4458 -57823 -5219" class="C1" /><path d="M 510746 182021 c -9805 -347 -24030 -982 -31612 -1411" class="C1" /><path d="M 479134 180611 c -16494 -933 -52515 -891 -72176 83" class="C1" /><path d="M 406958 180694 c -31125 1542 -43814 4174 -75853 15734" class="C1" /><path d="M 331105 196427 c -8641 3118 -20855 7196 -27142 9064" class="C1" /><path d="M 303963 205491 c -12875 3824 -23764 7733 -29251 10500" class="C1" /><path d="M 274711 215991 c -13390 6753 -22503 16580 -30963 33389" class="C1" /><path d="M 243748 249380 c -5053 10038 -6012 12975 -9749 29853" class="C1" /><path d="M 233999 279233 c -3547 16018 -5328 21243 -13349 39150" class="C1" /><path d="M 220650 318383 c -5777 12897 -8646 21568 -14185 42866" class="C1" /><path d="M 206465 361249 c -1347 5178 -3481 13197 -4744 17820" class="C1" /><path d="M 201722 379069 c -4484 16419 -7777 36001 -8708 51778" class="C1" /><path d="M 193014 430847 c -229 3883 -1037 13113 -1795 20510" class="C1" /><path d="M 191218 451357 c -1735 16920 -1469 32103 705 40265" class="C1" /><path d="M 191924 491621 c 3909 14676 19675 37685 38711 56495" class="C1" /><path d="M 230634 548117 c 12897 12745 20075 16937 36008 21034" class="C1" /><path d="M 266642 569151 c 7176 1845 13154 2022 40010 1186" class="C1" /><path d="M 306652 570336 c 13216 -412 16037 -297 26458 1072" class="C1" /><path d="M 333110 571408 c 12902 1696 12850 1706 12870 -2564" class="C1" /><path d="M 345980 568845 c 16 -3362 -1464 -6236 -7085 -13765" class="C1" /><path d="M 338895 555080 c -2830 -3790 -5868 -8311 -6750 -10047" class="C1" /><path d="M 332145 545033 c -4790 -9422 -6966 -24931 -5651 -40272" class="C1" /><path d="M 326494 504761 c 446 -5203 1020 -10240 1275 -11194" class="C1" /><path d="M 327769 493567 c 434 -1621 520 -1541 1339 1227" class="C1" /><path d="M 329108 494795 c 1239 4193 15172 38930 17309 43155" class="C1" /><path d="M 346416 537950 c 4493 8883 11576 16630 22295 24382" class="C1" /><path d="M 368712 562331 c 3037 2196 5521 4309 5521 4695" class="C1" /><path d="M 374233 567026 c 0 386 -1028 2846 -2284 5466" class="C1" /><path d="M 371949 572492 c -2437 5085 -4256 6574 -13855 11339" class="C1" /><path d="M 358094 583831 c -5509 2734 -13601 8240 -15130 10295" class="C1" /><path d="M 342964 594126 c -1026 1377 -1345 2857 -1345 6230" class="C1" /><path d="M 341619 600355 c 0 5532 1462 7670 8918 13043" class="C1" /><path d="M 350537 613398 c 14756 10633 17705 11936 22144 9791" class="C1" /><path d="M 372682 623189 c 3047 -1472 5138 -3789 9003 -9973" class="C1" /><path d="M 381684 613216 c 2290 -3664 3211 -4501 6843 -6220" class="C1" /><path d="M 388528 606997 c 5082 -2404 10431 -2594 17646 -625" class="C1" /><path d="M 406174 606372 c 14492 3954 32624 8287 45054 10769" class="C1" /><path d="M 451228 617140 c 7767 1550 15248 3391 16624 4090" class="C1" /><path d="M 467852 621231 c 6529 3316 9174 7687 11291 18655" class="C1" /><path d="M 479143 639885 c 2048 10613 2363 17359 1025 21959" class="C1" /><path d="M 480168 661844 c -2689 9251 -6076 13523 -14966 18876" class="C1" /><path d="M 465202 680720 c -4738 2853 -5776 2944 -5077 444" class="C1" /><path d="M 457976 322976 l -2666 1962 l 1603 -2690" class="C1" /><path d="M 738610 623865 c -3554 -3314 -7425 -7525 -8601 -9358" class="C1" /><path d="M 730009 614507 c -2546 -3967 -7356 -19374 -7913 -25347" class="C1" /><path d="M 722096 589160 c -838 -8973 5167 -18000 15060 -22639" class="C1" /><path d="M 737155 566521 c 5750 -2696 11129 -2978 27463 -1440" class="C1" /><path d="M 764619 565081 c 7379 695 17502 1242 22495 1217" class="C1" /><path d="M 787113 566297 c 10285 -53 11094 -316 18777 -6110" class="C1" /><path d="M 805890 560187 c 5596 -4220 7117 -7079 7099 -13344" class="C1" /><path d="M 812989 546844 c 0 -4280 -281 -5196 -2957 -10087" class="C1" /><path d="M 810032 536757 c -9897 -18085 -15055 -30409 -16885 -40347" class="C1" /><path d="M 793147 496410 c -409 -2219 -918 -11023 -1132 -19565" class="C1" /><path d="M 460125 681164 l 0 0" class="C1" /><path d="M 793342 457568 c 944 -2061 2913 -5512 4376 -7669" class="C1" /><path d="M 797718 449899 c 8547 -12600 10823 -23739 6936 -33944" class="C1" /><path d="M 804654 415954 c -1993 -5232 -5783 -9269 -13408 -14281" class="C1" /><path d="M 791246 401674 c -8774 -5768 -9428 -6064 -18612 -8433" class="C1" /><path d="M 772634 393241 c -9039 -2331 -13224 -2554 -18516 -985" class="C1" /><path d="M 754118 392256 c -6500 1927 -8867 3622 -19119 13689" class="C1" /><path d="M 734999 405945 c -5548 5448 -12356 11677 -15130 13842" class="C1" /><path d="M 719869 419787 c -2774 2165 -9971 8726 -15995 14580" class="C1" /><path d="M 703874 434367 c -16260 15802 -26256 22840 -35193 24779" class="C1" /><path d="M 668682 459146 c -2836 615 -5539 882 -6007 593" class="C1" /><path d="M 662675 459740 c -1384 -855 5297 -8605 12307 -14276" class="C1" /><path d="M 674982 445464 c 10051 -8131 13346 -11819 17708 -19821" class="C1" /><path d="M 692690 425643 c 3448 -6325 5141 -8479 13443 -17103" class="C1" /><path d="M 706133 408541 c 5224 -5426 11679 -12899 14344 -16606" class="C1" /><path d="M 720478 391934 c 6838 -9512 13512 -17049 16232 -18333" class="C1" /><path d="M 736710 373601 c 1278 -603 5047 -1777 8376 -2609" class="C1" /><path d="M 745086 370993 c 7375 -1842 15819 -1587 19373 586" class="C1" /><path d="M 764459 371579 c 8695 5316 17476 8832 29715 11896" class="C1" /><path d="M 794174 383475 c 5178 1296 11230 2813 13449 3370" class="C1" /><path d="M 807623 386845 c 6228 1563 16068 5522 18935 7618" class="C1" /><path d="M 826557 394463 c 2877 2104 8104 10312 10770 16913" class="C1" /><path d="M 837328 411377 c 1460 3615 1638 4830 1264 8644" class="C1" /><path d="M 838591 420021 c -1128 11498 -4614 24725 -8614 32681" class="C1" /><path d="M 829978 452702 c -1116 2219 -4513 7666 -7550 12104" class="C1" /><path d="M 822428 464806 c -8348 12201 -8090 11541 -8020 20510" class="C1" /><path d="M 814408 485315 c 79 10289 3198 22688 12821 50995" class="C1" /><path d="M 827229 536310 c 4069 11969 4233 13909 1857 21965" class="C1" /><path d="M 829086 558275 c -907 3075 -1398 3621 -5748 6388" class="C1" /><path d="M 823338 564663 c -5864 3731 -9261 7886 -11972 14645" class="C1" /><path d="M 811366 579308 c -3128 7796 -3548 8450 -6303 9801" class="C1" /><path d="M 805063 589109 c -4573 2242 -9125 1656 -16904 -2174" class="C1" /><path d="M 788159 586934 c -8167 -4022 -11217 -5062 -18045 -6157" class="C1" /><path d="M 770114 580777 c -14581 -2338 -29025 3283 -31450 12237" class="C1" /><path d="M 738664 593014 c -1401 5174 -264 14385 3054 24740" class="C1" /><path d="M 741718 617754 c 3516 10975 3858 12136 3575 12136" class="C1" /><path d="M 745292 629890 c -121 0 -3128 -2711 -6683 -6025" class="C1" /><path d="M 792015 476846 l -388 -15530 l 1716 -3748" class="C1" /><path d="M 960221 593662 c 0 -92 637 -2392 1415 -5111" class="C1" /><path d="M 961637 588552 c 1727 -6035 5901 -15528 7112 -16178" class="C1" /><path d="M 968749 572374 c 488 -262 2227 -1835 3866 -3497" class="C1" /><path d="M 972615 568877 c 4349 -4409 5060 -7018 4613 -16927" class="C1" /><path d="M 977228 551950 c -188 -4186 -561 -25646 -827 -47689" class="C1" /><path d="M 976400 504261 c -342 -28288 -674 -40711 -1128 -42229" class="C1" /><path d="M 975272 462031 c -880 -2939 -2023 -5124 -3521 -6728" class="C1" /><path d="M 971751 455303 c -977 -1046 -1573 -2975 -2659 -8607" class="C1" /><path d="M 969092 446696 c -770 -3992 -1862 -8821 -2426 -10730" class="C1" /><path d="M 966666 435966 c -564 -1909 -966 -3531 -893 -3604" class="C1" /><path d="M 965773 432361 c 396 -396 15450 3726 17786 4870" class="C1" /><path d="M 983559 437231 c 1515 741 4380 2690 6369 4331" class="C1" /><path d="M 989928 441562 c 3593 2965 3625 3014 5211 8229" class="C1" /><path d="M 995139 449791 c 2901 9536 2930 9935 2189 30248" class="C1" /><path d="M 997328 480039 c -738 20236 -548 30466 851 45739" class="C1" /><path d="M 998179 525779 c 592 6458 934 15712 976 26360" class="C1" /><path d="M 999155 552139 c 64 16183 44 16478 -1360 21566" class="C1" /><path d="M 997795 573705 c -1837 6654 -3673 10216 -6962 13505" class="C1" /><path d="M 990832 587210 c -4526 4526 -8724 5702 -22407 6276" class="C1" /><path d="M 968425 593486 c -4512 189 -8204 269 -8204 176" class="C1" /><path d="M 738610 623865 l 0 0" class="C1" /><path d="M 592909 604199 c -2106 -5630 -2268 -7513 -1545 -18018" class="C1" /><path d="M 591364 586182 c 586 -8521 1023 -10849 3463 -18457" class="C1" /><path d="M 594827 567724 c 1536 -4789 3476 -10236 4312 -12104" class="C1" /><path d="M 599139 555620 c 2296 -5133 11756 -18987 16234 -23776" class="C1" /><path d="M 960221 593662 l 0 0" class="C1" /><path d="M 627478 531641 c 8881 4404 11224 6034 21594 15024" class="C1" /><path d="M 649071 546665 c 14194 12305 28236 32881 31786 46578" class="C1" /><path d="M 680857 593242 c 1519 5861 2492 13113 1760 13113" class="C1" /><path d="M 682617 606355 c -958 0 -19215 -14521 -26491 -21070" class="C1" /><path d="M 656126 585285 c -8890 -8002 -13444 -10774 -20173 -12277" class="C1" /><path d="M 635953 573008 c -6400 -1430 -10905 -855 -16936 2163" class="C1" /><path d="M 619017 575171 c -8419 4212 -15339 12710 -22152 27204" class="C1" /><path d="M 615373 531845 l 3966 -4240 l 8139 4036" class="C1" /><path d="M 676496 593410 c -244 -1202 -1091 -4251 -1883 -6776" class="C1" /><path d="M 674613 586635 c -1900 -6056 -10904 -18105 -23159 -30990" class="C1" /><path d="M 651453 555645 c -7519 -7905 -10200 -10225 -16192 -14012" class="C1" /><path d="M 635261 541633 c -3950 -2496 -8794 -5371 -10765 -6388" class="C1" /><path d="M 596865 602375 l -2583 5495 l -1373 -3671" class="C1" /><path d="M 622183 541768 c 7532 3926 16664 10114 24278 16451" class="C1" /><path d="M 646461 558219 c 7319 6092 14956 15951 19347 24976" class="C1" /><path d="M 665808 583194 c 2623 5393 3687 6836 6895 9357" class="C1" /><path d="M 672703 592551 c 2086 1639 3893 2995 4015 3013" class="C1" /><path d="M 676718 595564 c 122 19 21 -952 -222 -2154" class="C1" /><path d="M 624497 535245 l -3584 -1850 l -2314 2649 l -2314 2650 l 5898 3074" class="C1" /><path d="M 606719 577398 c 5512 -4140 5525 -4158 2213 -2990" class="C1" /><path d="M 608932 574408 c -8434 2976 -16368 10663 -13728 13303" class="C1" /><path d="M 595203 587711 c 225 225 2035 -1348 4023 -3496" class="C1" /><path d="M 599226 584215 c 1988 -2147 5360 -5215 7493 -6817" class="C1" /><path d="M 676496 593410 l 0 0" class="C1" /><path d="M 928249 586536 c -7081 -4491 -11060 -10484 -12134 -18279" class="C1" /><path d="M 916115 568257 c -823 -5972 210 -30834 1596 -38444" class="C1" /><path d="M 917710 529813 c 593 -3255 1365 -7733 1715 -9952" class="C1" /><path d="M 919425 519861 c 815 -5171 839 -24640 40 -33353" class="C1" /><path d="M 919466 486508 c -2195 -23955 -2132 -30702 362 -38733" class="C1" /><path d="M 919828 447775 c 1469 -4730 5543 -8823 11529 -11583" class="C1" /><path d="M 931357 436193 c 2321 -1070 4287 -1867 4369 -1771" class="C1" /><path d="M 935726 434421 c 83 96 1043 3684 2135 7974" class="C1" /><path d="M 937861 442396 c 1092 4290 2705 10533 3584 13874" class="C1" /><path d="M 941445 456269 c 880 3340 1482 6264 1337 6497" class="C1" /><path d="M 942783 462766 c -144 233 -634 8195 -1089 17693" class="C1" /><path d="M 941694 480459 c -612 12768 -738 22854 -485 38692" class="C1" /><path d="M 606719 577398 l 0 0" class="C1" /><path d="M 939784 549026 c -1503 7185 -1689 8853 -1241 11120" class="C1" /><path d="M 938543 560145 c 496 2508 299 3403 -3318 15069" class="C1" /><path d="M 935225 575214 c -2115 6821 -3970 12527 -4122 12679" class="C1" /><path d="M 931103 587893 c -152 152 -1436 -458 -2853 -1357" class="C1" /><path d="M 941209 519151 l 343 21422 l -1768 8453" class="C1" /><path d="M 497963 577906 c -3514 -1266 -9451 -3393 -13195 -4726" class="C1" /><path d="M 484768 573180 c -3744 -1333 -10991 -4256 -16105 -6496" class="C1" /><path d="M 468663 566684 c -17204 -7534 -28614 -10613 -45885 -12381" class="C1" /><path d="M 422778 554302 c -16289 -1668 -22135 -3620 -27266 -9106" class="C1" /><path d="M 395512 545197 c -3640 -3891 -5767 -7960 -9591 -18343" class="C1" /><path d="M 385921 526854 c -3466 -9412 -13193 -48366 -15371 -61553" class="C1" /><path d="M 370550 465301 c -459 -2782 -407 -2894 1773 -3796" class="C1" /><path d="M 372323 461504 c 1235 -511 6936 -1579 12669 -2372" class="C1" /><path d="M 384992 459132 c 5733 -793 14508 -2018 19501 -2721" class="C1" /><path d="M 404493 456411 c 4993 -703 11953 -1462 15466 -1687" class="C1" /><path d="M 419959 454724 c 7335 -469 31787 -2882 34295 -3384" class="C1" /><path d="M 454254 451340 c 925 -185 7431 -1106 14458 -2047" class="C1" /><path d="M 468711 449293 c 25646 -3434 32742 -3316 45533 758" class="C1" /><path d="M 514245 450051 c 11146 3549 23508 9920 34487 17773" class="C1" /><path d="M 548732 467824 c 5178 3703 13348 9345 18156 12539" class="C1" /><path d="M 566888 480362 c 9081 6031 15285 10195 23872 16021" class="C1" /><path d="M 590760 496384 c 2774 1882 6644 4403 8601 5601" class="C1" /><path d="M 928250 586536 l 0 0" class="C1" /><path d="M 597830 508357 c -2798 2306 -7122 5798 -9609 7760" class="C1" /><path d="M 588221 516116 c -11587 9142 -29341 27760 -34431 36107" class="C1" /><path d="M 553789 552223 c -3726 6110 -12881 18369 -15920 21319" class="C1" /><path d="M 537870 573542 c -5501 5339 -8060 6092 -21751 6401" class="C1" /><path d="M 599361 501985 l 3557 2179 l -5088 4192" class="C1" /><path d="M 522361 574297 c 4727 -1401 7535 -2902 11810 -6311" class="C1" /><path d="M 534171 567986 c 4103 -3272 14915 -16207 17029 -20372" class="C1" /><path d="M 551200 547613 c 3014 -5939 5813 -9257 17951 -21279" class="C1" /><path d="M 569152 526334 c 6908 -6842 14266 -14430 16350 -16863" class="C1" /><path d="M 516119 579943 l -11768 266 l -6388 -2302" class="C1" /><path d="M 583818 501402 c -11562 -7704 -18995 -13706 -32732 -26430" class="C1" /><path d="M 551086 474972 c -10212 -9459 -16144 -12156 -40347 -18343" class="C1" /><path d="M 510739 456628 c -3901 -997 -23607 -3743 -24006 -3345" class="C1" /><path d="M 486734 453284 c -604 604 10971 5060 26306 10127" class="C1" /><path d="M 513039 463411 c 24286 8025 35945 14147 45443 23860" class="C1" /><path d="M 558483 487270 c 5308 5428 10905 10018 18137 14876" class="C1" /><path d="M 585501 509471 l 3789 -4423 l -5473 -3647" class="C1" /><path d="M 578659 506013 c -3299 1346 -20691 13505 -22268 15567" class="C1" /><path d="M 556391 521580 c -2249 2942 -10300 15607 -13048 20526" class="C1" /><path d="M 543343 542106 c -7035 12591 -21119 26794 -31427 31695" class="C1" /><path d="M 511916 573800 c -1387 659 -2522 1484 -2522 1834" class="C1" /><path d="M 509394 575634 c 0 859 8523 -19 12967 -1337" class="C1" /><path d="M 576620 502146 l 4352 2923 l -2313 944" class="C1" /><path d="M 26448 560711 c -7783 -1842 -11082 -3299 -15401 -6801" class="C1" /><path d="M 11047 553910 c -4333 -3513 -4913 -4429 -6912 -10922" class="C1" /><path d="M 522361 574297 l 0 0" class="C1" /><path d="M 2662 522820 c 504 -27740 314 -40906 -771 -53258" class="C1" /><path d="M 1892 469563 c -712 -8110 -1051 -16746 -1076 -27436" class="C1" /><path d="M 816 442127 c -34 -14466 51 -15945 1169 -20332" class="C1" /><path d="M 1985 421795 c 2090 -8200 4826 -12814 9827 -16571" class="C1" /><path d="M 11812 405224 c 2151 -1616 3495 -2134 7365 -2838" class="C1" /><path d="M 19177 402386 c 4422 -804 18464 -1840 18442 -1360" class="C1" /><path d="M 37619 401026 c -6 119 -1534 4937 -3397 10707" class="C1" /><path d="M 34222 411732 c -3377 10458 -3396 10499 -6363 13465" class="C1" /><path d="M 27859 425198 c -2106 2106 -3330 3914 -4189 6186" class="C1" /><path d="M 23671 431384 c -1124 2978 -1189 3778 -885 11011" class="C1" /><path d="M 22786 442396 c 180 4290 551 25835 825 47878" class="C1" /><path d="M 23610 490274 c 547 44073 588 44580 3940 48262" class="C1" /><path d="M 27550 538536 c 729 801 1939 4676 3695 11835" class="C1" /><path d="M 31245 550371 c 1436 5854 2612 10947 2614 11317" class="C1" /><path d="M 33860 561687 c 4 831 499 896 -7411 -977" class="C1" /><path d="M 4135 542988 l -1737 -5643 l 264 -14525" class="C1" /><path d="M 62174 560318 c -590 -954 -2502 -11774 -2992 -16928" class="C1" /><path d="M 59182 543390 c -288 -3029 -792 -6755 -1120 -8280" class="C1" /><path d="M 58062 535110 c -451 -2096 -393 -7151 239 -20711" class="C1" /><path d="M 58301 514399 c 610 -13114 746 -23654 506 -39188" class="C1" /><path d="M 26448 560711 l 0 0" class="C1" /><path d="M 60158 445934 c 1948 -9312 1973 -9848 648 -13685" class="C1" /><path d="M 58807 475211 l -329 -21249 l 1679 -8028" class="C1" /><path d="M 63456 417826 c 2005 -6346 3774 -11666 3930 -11822" class="C1" /><path d="M 67386 406004 c 423 -423 4508 2102 8169 5050" class="C1" /><path d="M 75555 411054 c 3566 2871 6028 6532 7584 11276" class="C1" /><path d="M 83139 422330 c 921 2808 1007 4541 859 17360" class="C1" /><path d="M 83998 439690 c -163 14153 -593 19080 -2720 31217" class="C1" /><path d="M 81277 470907 c -2091 11926 -2067 26807 71 45188" class="C1" /><path d="M 81348 516096 c 1024 8800 850 22519 -350 27705" class="C1" /><path d="M 80998 543800 c -548 2367 -1453 5203 -2011 6303" class="C1" /><path d="M 78987 550103 c -1467 2890 -6691 6991 -11400 8952" class="C1" /><path d="M 67588 559055 c -4295 1788 -4989 1950 -5414 1263" class="C1" /><path d="M 60806 432249 l -996 -2885 l 3646 -11538" class="C1" /><path d="M 700368 544478 c -11505 -1803 -23794 -5413 -30815 -9052" class="C1" /><path d="M 669553 535425 c -5161 -2675 -6777 -4020 -14022 -11670" class="C1" /><path d="M 655531 523756 c -4504 -4755 -11740 -11643 -16081 -15306" class="C1" /><path d="M 639450 508450 c -4341 -3663 -8810 -7453 -9933 -8423" class="C1" /><path d="M 62174 560318 l 0 0" class="C1" /><path d="M 636140 495457 c 15927 -5159 44832 -19208 67728 -32917" class="C1" /><path d="M 703868 462541 c 27107 -16230 31071 -18173 40157 -19673" class="C1" /><path d="M 744025 442868 c 3819 -631 5803 -571 11254 342" class="C1" /><path d="M 755279 443209 c 8749 1464 13311 3733 16200 8055" class="C1" /><path d="M 771479 451264 c 2071 3099 2185 3592 2173 9414" class="C1" /><path d="M 773653 460679 c -8 3379 -309 8868 -673 12196" class="C1" /><path d="M 772979 472875 c -364 3329 -963 13617 -1332 22863" class="C1" /><path d="M 771648 495738 c -1081 27098 -1909 29263 -13286 34721" class="C1" /><path d="M 758361 530459 c -7152 3431 -18438 7926 -31423 12517" class="C1" /><path d="M 726938 542976 c -8522 3013 -14703 3362 -26570 1502" class="C1" /><path d="M 629518 500027 l -2041 -1763 l 8663 -2806" class="C1" /><path d="M 721312 539192 c 2019 -695 8087 -3534 13485 -6310" class="C1" /><path d="M 734797 532883 c 5397 -2776 12644 -5991 16103 -7145" class="C1" /><path d="M 750900 525738 c 7081 -2362 10124 -4007 11592 -6264" class="C1" /><path d="M 762493 519474 c 3470 -5334 6032 -21680 6847 -43683" class="C1" /><path d="M 769339 475791 c 641 -17305 -622 -23370 -5535 -26583" class="C1" /><path d="M 763804 449208 c -1514 -990 -3157 -1199 -8942 -1138" class="C1" /><path d="M 754863 448070 c -3898 42 -8269 352 -9714 690" class="C1" /><path d="M 700368 544478 l 0 0" class="C1" /><path d="M 747685 451344 c 10897 4159 11898 6314 12338 26574" class="C1" /><path d="M 760023 477918 c 490 22579 -1664 34824 -7046 40051" class="C1" /><path d="M 752977 517969 c -2316 2250 -4161 3254 -15761 8580" class="C1" /><path d="M 737216 526549 c -4565 2096 -15244 8788 -20036 12555" class="C1" /><path d="M 717179 539104 c -2206 1734 -742 1766 4133 88" class="C1" /><path d="M 745148 448760 l -2627 614 l 5164 1971" class="C1" /><path d="M 596916 467133 c -2312 -2924 -8439 -9334 -13615 -14245" class="C1" /><path d="M 583301 452889 c -5176 -4911 -11847 -11874 -14823 -15474" class="C1" /><path d="M 568477 437415 c -6934 -8384 -21517 -22401 -26257 -25236" class="C1" /><path d="M 542221 412179 c -7171 -4290 -10685 -5177 -20386 -5149" class="C1" /><path d="M 521834 407030 c -5988 18 -11178 480 -16475 1467" class="C1" /><path d="M 505360 408497 c -6088 1135 -11524 1529 -25553 1854" class="C1" /><path d="M 479807 410351 c -17644 408 -38405 2097 -50097 4075" class="C1" /><path d="M 429710 414426 c -21640 3660 -44726 10320 -56900 16415" class="C1" /><path d="M 372809 430840 c -7357 3683 -10118 5578 -21268 14594" class="C1" /><path d="M 351541 445435 c -8338 6742 -22129 14173 -21350 11503" class="C1" /><path d="M 330191 456938 c 1282 -4392 4793 -10654 7597 -13549" class="C1" /><path d="M 337788 443389 c 4026 -4156 23402 -20191 28750 -23794" class="C1" /><path d="M 366539 419595 c 17966 -12100 61594 -25724 89845 -28056" class="C1" /><path d="M 456384 391539 c 10974 -906 31482 -3739 44268 -6115" class="C1" /><path d="M 500652 385424 c 3883 -722 10352 -1102 20173 -1187" class="C1" /><path d="M 520826 384237 c 14255 -123 14517 -100 18680 1654" class="C1" /><path d="M 539505 385891 c 6037 2544 10615 5448 19521 12387" class="C1" /><path d="M 559026 398278 c 7708 6005 7940 6267 15481 17484" class="C1" /><path d="M 574507 415762 c 4211 6263 10790 15548 14621 20634" class="C1" /><path d="M 589128 436395 c 3831 5086 7246 9776 7591 10423" class="C1" /><path d="M 596719 446818 c 884 1661 4641 17297 5152 21445" class="C1" /><path d="M 601871 468263 c 235 1902 162 3622 -163 3822" class="C1" /><path d="M 601709 472085 c -324 200 -2481 -2028 -4793 -4952" class="C1" /><path d="M 721312 539192 l 0 0" class="C1" /><path d="M 954573 472439 c -2694 -990 -5119 -3129 -6217 -5484" class="C1" /><path d="M 948356 466955 c -1762 -3779 -8441 -30843 -8849 -35856" class="C1" /><path d="M 939508 431099 c -720 -8856 -3745 -21416 -9137 -37926" class="C1" /><path d="M 930371 393173 c -1353 -4142 -3654 -11284 -5113 -15870" class="C1" /><path d="M 925258 377303 c -3177 -9981 -11838 -43335 -11838 -45588" class="C1" /><path d="M 913420 331715 c 0 -2199 982 -4921 2523 -6997" class="C1" /><path d="M 915942 324718 c 3604 -4854 11642 -5424 16138 -1144" class="C1" /><path d="M 932081 323573 c 2678 2549 3348 4475 4255 12234" class="C1" /><path d="M 936336 335807 c 1000 8551 1896 12062 4572 17910" class="C1" /><path d="M 940908 353717 c 1574 3440 3820 11172 8594 29588" class="C1" /><path d="M 949502 383305 c 15717 60627 17004 66173 17553 75615" class="C1" /><path d="M 967056 458920 c 376 6456 -359 9101 -3327 11977" class="C1" /><path d="M 963729 470897 c -1554 1506 -2325 1829 -4700 1968" class="C1" /><path d="M 959029 472866 c -1563 92 -3568 -100 -4456 -426" class="C1" /><path d="M 596916 467133 l 0 0" class="C1" /><path d="M 40381 441050 c -4897 -1527 -8021 -6454 -7421 -11704" class="C1" /><path d="M 32960 429346 c 334 -2920 6393 -22221 9701 -30900" class="C1" /><path d="M 42661 398446 c 2769 -7265 6638 -19321 7389 -23025" class="C1" /><path d="M 50051 375420 c 360 -1775 6911 -22948 14557 -47051" class="C1" /><path d="M 64608 328370 c 14875 -46887 14681 -46391 18944 -48603" class="C1" /><path d="M 83551 279767 c 3136 -1628 6196 -1764 9252 -412" class="C1" /><path d="M 92803 279355 c 1439 637 3075 1572 3635 2078" class="C1" /><path d="M 96438 281433 c 1809 1636 3208 5071 3220 7908" class="C1" /><path d="M 99658 289341 c 17 4221 -4428 17434 -9951 29574" class="C1" /><path d="M 89707 318915 c -1206 2652 -2862 6767 -3679 9145" class="C1" /><path d="M 86027 328060 c -817 2378 -1976 5413 -2574 6745" class="C1" /><path d="M 83453 334805 c -599 1331 -2066 6536 -3259 11566" class="C1" /><path d="M 80193 346371 c -1194 5030 -2914 11301 -3822 13936" class="C1" /><path d="M 76371 360307 c -908 2635 -2480 8082 -3493 12104" class="C1" /><path d="M 72878 372411 c -1013 4022 -2434 8887 -3157 10810" class="C1" /><path d="M 69721 383221 c -723 1923 -1834 5918 -2470 8876" class="C1" /><path d="M 67251 392097 c -1188 5534 -11924 40153 -13346 43036" class="C1" /><path d="M 53905 435133 c -1396 2831 -3998 5097 -6810 5932" class="C1" /><path d="M 47095 441066 c -3172 942 -3648 941 -6714 -15" class="C1" /><path d="M 954573 472439 l 0 0" class="C1" /><path d="M 909923 364888 c -5459 -1197 -6037 -1537 -10341 -6085" class="C1" /><path d="M 899582 358803 c -5714 -6036 -7265 -8525 -12779 -20502" class="C1" /><path d="M 886803 338302 c -6136 -13328 -14836 -30521 -17612 -34803" class="C1" /><path d="M 869191 303498 c -8620 -13297 -20132 -33400 -24330 -42485" class="C1" /><path d="M 844861 261013 c -3922 -8489 -5504 -18590 -3818 -24388" class="C1" /><path d="M 841042 236625 c 1367 -4701 2622 -6836 5319 -9046" class="C1" /><path d="M 40381 441051 l 0 0" class="C1" /><path d="M 856871 235418 c 8048 9760 8096 9833 8114 12537" class="C1" /><path d="M 864985 247955 c 25 3742 1757 8541 4986 13814" class="C1" /><path d="M 869971 261769 c 5109 8344 9117 15741 20190 37262" class="C1" /><path d="M 890161 299031 c 6090 11835 12882 24665 15093 28512" class="C1" /><path d="M 905255 327542 c 2211 3846 4333 7599 4714 8338" class="C1" /><path d="M 909969 335881 c 640 1240 7754 27917 7754 29075" class="C1" /><path d="M 917723 364956 c 0 623 -4841 581 -7800 -68" class="C1" /><path d="M 846362 227579 l 2414 -1978 l 8095 9817" class="C1" /><path d="M 945788 355920 c -304 -814 -1407 -3416 -2450 -5783" class="C1" /><path d="M 943337 350137 c -1044 -2367 -2251 -6346 -2683 -8842" class="C1" /><path d="M 940654 341295 c -714 -4121 -704 -4739 106 -6724" class="C1" /><path d="M 940760 334570 c 1406 -3451 1141 -8474 -684 -12946" class="C1" /><path d="M 940075 321625 c -5259 -12886 -13560 -29833 -26218 -53527" class="C1" /><path d="M 913857 268098 c -5525 -10343 -7662 -14909 -8686 -18559" class="C1" /><path d="M 905171 249539 c -746 -2663 -1728 -6173 -2181 -7800" class="C1" /><path d="M 902990 241739 c -453 -1627 -1548 -4098 -2433 -5491" class="C1" /><path d="M 900558 236248 c -1658 -2609 -6132 -5997 -8760 -6633" class="C1" /><path d="M 891798 229615 c -962 -233 -2977 -2187 -5994 -5814" class="C1" /><path d="M 885804 223801 c -2499 -3005 -5939 -7120 -7645 -9146" class="C1" /><path d="M 878159 214655 c -3523 -4184 -3612 -3945 2161 -5837" class="C1" /><path d="M 880321 208818 c 3279 -1075 4854 -1238 11850 -1225" class="C1" /><path d="M 892171 207593 c 11840 21 16434 1711 22400 8239" class="C1" /><path d="M 914571 215832 c 4636 5072 15913 29114 19227 40989" class="C1" /><path d="M 933799 256821 c 3153 11296 11587 27736 22904 44644" class="C1" /><path d="M 956703 301465 c 6852 10236 11739 21919 11810 28229" class="C1" /><path d="M 968512 329694 c 36 3294 -205 4271 -1935 7800" class="C1" /><path d="M 966578 337495 c -1923 3926 -8659 12075 -12542 15174" class="C1" /><path d="M 954036 352668 c -1844 1472 -6936 4731 -7391 4731" class="C1" /><path d="M 946644 357399 c -167 0 -552 -666 -856 -1479" class="C1" /><path d="M 909923 364888 l 0 0" class="C1" /><path d="M 945788 355920 l 0 0" class="C1" /><path d="M 91962 323249 c 0 -438 723 -2314 1606 -4169" class="C1" /><path d="M 93569 319080 c 1872 -3931 5944 -14409 7292 -18763" class="C1" /><path d="M 100861 300316 c 626 -2023 2422 -5039 5445 -9145" class="C1" /><path d="M 106306 291171 c 2481 -3370 12017 -17317 21190 -30994" class="C1" /><path d="M 127496 260177 c 9173 -13677 18872 -27673 21552 -31101" class="C1" /><path d="M 149048 229075 c 5355 -6851 7837 -11101 8348 -14293" class="C1" /><path d="M 157396 214782 c 298 -1863 1239 -2909 8738 -9713" class="C1" /><path d="M 166134 205069 c 4622 -4194 9212 -8371 10199 -9282" class="C1" /><path d="M 179634 195920 c 5031 5974 4412 17192 -1608 29142" class="C1" /><path d="M 178027 225062 c -3383 6716 -15808 24133 -28399 39809" class="C1" /><path d="M 149628 264871 c -5863 7299 -13963 19585 -26464 40139" class="C1" /><path d="M 123164 305010 c -3986 6553 -6974 10046 -12371 14462" class="C1" /><path d="M 110793 319471 c -4819 3943 -6513 4522 -13317 4551" class="C1" /><path d="M 97476 324022 c -4522 19 -5514 -120 -5514 -773" class="C1" /><path d="M 176333 195787 l 1794 -1657 l 1508 1790" class="C1" /><path d="M 61423 310251 c -3804 -2941 -9446 -9809 -12902 -15707" class="C1" /><path d="M 48521 294544 c -2107 -3596 -3457 -9899 -2773 -12955" class="C1" /><path d="M 45748 281589 c 1302 -5824 7761 -17053 14412 -25056" class="C1" /><path d="M 60160 256532 c 5936 -7143 15810 -20036 18127 -23670" class="C1" /><path d="M 78287 232862 c 3876 -6079 7818 -13377 10005 -18523" class="C1" /><path d="M 88292 214339 c 3525 -8295 6133 -13156 12427 -23161" class="C1" /><path d="M 100719 191178 c 9240 -14689 11376 -17047 18304 -20207" class="C1" /><path d="M 119023 170972 c 2447 -1116 4260 -1486 8392 -1714" class="C1" /><path d="M 127414 169258 c 8964 -494 16835 1203 23662 5102" class="C1" /><path d="M 91962 323249 l 0 0" class="C1" /><path d="M 145733 183358 c -7990 7312 -8160 7430 -11686 8170" class="C1" /><path d="M 134046 191528 c -7746 1624 -11040 4991 -15162 15501" class="C1" /><path d="M 118884 207029 c -2577 6570 -3662 8485 -10314 18202" class="C1" /><path d="M 108570 225231 c -14237 20794 -19772 29215 -26003 39560" class="C1" /><path d="M 82567 264791 c -9623 15975 -9608 15941 -9992 22334" class="C1" /><path d="M 72574 287125 c -283 4700 -788 6875 -3673 15806" class="C1" /><path d="M 68901 302931 c -1840 5696 -3395 10353 -3456 10349" class="C1" /><path d="M 65445 313280 c -61 -4 -1871 -1367 -4022 -3029" class="C1" /><path d="M 151076 174360 l 2764 1579 l -8108 7420" class="C1" /><path d="M 61423 310251 l 0 0" class="C1" /><path d="M 878184 251998 c -2345 -566 -3525 -1314 -5723 -3627" class="C1" /><path d="M 872460 248371 c -5482 -5769 -43671 -52969 -48961 -60515" class="C1" /><path d="M 823500 187856 c -3358 -4789 -7924 -10662 -10148 -13052" class="C1" /><path d="M 813351 174804 c -6376 -6851 -12281 -13518 -17904 -20214" class="C1" /><path d="M 795447 154590 c -2857 -3403 -6662 -7881 -8455 -9952" class="C1" /><path d="M 786992 144638 c -4890 -5648 -6078 -7885 -6102 -11491" class="C1" /><path d="M 780890 133146 c -21 -3183 1272 -6471 3248 -8258" class="C1" /><path d="M 784138 124888 c 2165 -1958 6122 -3260 8905 -2930" class="C1" /><path d="M 793043 121958 c 3864 458 5861 1973 11372 8631" class="C1" /><path d="M 804416 130589 c 23431 28303 35002 42659 36937 45822" class="C1" /><path d="M 841352 176411 c 4059 6638 7531 10885 20434 24995" class="C1" /><path d="M 861786 201406 c 9507 10396 27993 32754 29102 35195" class="C1" /><path d="M 890888 236602 c 2067 4550 898 9692 -2975 13093" class="C1" /><path d="M 887913 249695 c -2779 2440 -6001 3203 -9730 2303" class="C1" /><path d="M 878184 251998 l 0 0" class="C1" /><path d="M 138595 217553 c -6404 -2055 -9639 -10389 -6238 -16066" class="C1" /><path d="M 132357 201487 c 1567 -2616 39430 -37376 45473 -41748" class="C1" /><path d="M 177831 159739 c 2332 -1687 7883 -6743 12336 -11236" class="C1" /><path d="M 190167 148503 c 12314 -12424 44254 -41692 47122 -43180" class="C1" /><path d="M 237289 105323 c 1076 -559 2997 -936 4763 -935" class="C1" /><path d="M 242052 104388 c 8507 4 13612 8253 9922 16030" class="C1" /><path d="M 251973 120418 c -1300 2740 -35944 34401 -42199 38566" class="C1" /><path d="M 209775 158984 c -5181 3450 -13815 11258 -18638 16855" class="C1" /><path d="M 191137 175839 c -1785 2071 -4313 4858 -5618 6194" class="C1" /><path d="M 185519 182033 c -4341 4441 -35682 32941 -37679 34263" class="C1" /><path d="M 147840 216296 c -2181 1444 -6734 2063 -9245 1257" class="C1" /><path d="M 138595 217553 l 0 0" class="C1" /><path d="M 778989 176064 c -3847 -756 -8457 -3208 -18112 -9638" class="C1" /><path d="M 760877 166426 c -10358 -6897 -14596 -10174 -21485 -16611" class="C1" /><path d="M 739391 149815 c -10750 -10045 -17830 -14667 -41692 -27220" class="C1" /><path d="M 697700 122595 c -9821 -5167 -13436 -7428 -18643 -11663" class="C1" /><path d="M 679056 110932 c -4551 -3701 -7048 -6704 -8091 -9731" class="C1" /><path d="M 670966 101202 c -1154 -3351 -1458 -8504 -728 -12372" class="C1" /><path d="M 684056 89342 c 12507 3790 13328 4121 16496 6645" class="C1" /><path d="M 700552 95988 c 6607 5264 29691 21197 36956 25508" class="C1" /><path d="M 737508 121495 c 1923 1141 8459 5172 14525 8957" class="C1" /><path d="M 752033 130453 c 9434 5888 11975 7774 17577 13054" class="C1" /><path d="M 769610 143506 c 3602 3394 7354 6593 8338 7108" class="C1" /><path d="M 777948 150615 c 1113 583 3479 1029 6259 1180" class="C1" /><path d="M 670238 88830 l 656 -3477 l 13162 3989" class="C1" /><path d="M 792509 156676 c 2108 2551 5374 6382 7259 8514" class="C1" /><path d="M 784207 151795 l 4469 243 l 3833 4638" class="C1" /><path d="M 800880 170529 c -5435 3435 -13398 6165 -17645 6050" class="C1" /><path d="M 783234 176579 c -1035 -28 -2946 -260 -4245 -515" class="C1" /><path d="M 799767 165191 l 3426 3876 l -2313 1462" class="C1" /><path d="M 233714 158139 c -3308 -1049 -6298 -2747 -8009 -4548" class="C1" /><path d="M 778989 176064 l 0 0" class="C1" /><path d="M 227309 149104 c 1737 -1569 6067 -5541 9623 -8826" class="C1" /><path d="M 225705 153591 l -1553 -1635 l 3158 -2852" class="C1" /><path d="M 246692 134257 c 4144 -58 7981 -1577 16752 -6629" class="C1" /><path d="M 263445 127628 c 3630 -2091 18154 -9357 32277 -16147" class="C1" /><path d="M 295722 111481 c 25936 -12470 41325 -20422 44200 -22842" class="C1" /><path d="M 339922 88639 c 1226 -1032 3922 -1845 12351 -3728" class="C1" /><path d="M 352273 84912 c 5930 -1324 11188 -2408 11683 -2408" class="C1" /><path d="M 363956 82504 c 1937 0 -114 13504 -2522 16603" class="C1" /><path d="M 361434 99107 c -1525 1963 -7742 7356 -10984 9530" class="C1" /><path d="M 350450 108637 c -1479 992 -7168 3724 -12642 6072" class="C1" /><path d="M 337808 114709 c -18281 7842 -30699 13682 -36912 17362" class="C1" /><path d="M 300896 132070 c -17977 10646 -38079 21216 -45207 23770" class="C1" /><path d="M 255689 155840 c -7808 2797 -17280 3788 -21975 2299" class="C1" /><path d="M 236932 140277 l 6465 -5974 l 3296 -47" class="C1" /><path d="M 819008 142609 c -1184 -1535 -5257 -6535 -9052 -11112" class="C1" /><path d="M 809956 131497 c -3795 -4577 -7238 -8975 -7652 -9775" class="C1" /><path d="M 802305 121722 c -1153 -2231 -5890 -6101 -10603 -8663" class="C1" /><path d="M 791702 113059 c -8363 -4547 -19257 -11223 -38862 -23816" class="C1" /><path d="M 752840 89243 c -17358 -11150 -30081 -18888 -36227 -22036" class="C1" /><path d="M 716613 67207 c -989 -506 -4126 -1159 -6970 -1450" class="C1" /><path d="M 709643 65757 c -2844 -291 -6865 -885 -8936 -1321" class="C1" /><path d="M 700707 64436 c -5338 -1123 -16013 -4523 -15816 -5038" class="C1" /><path d="M 684892 59398 c 91 -238 3030 -3122 6531 -6409" class="C1" /><path d="M 691422 52989 c 6711 -6303 9923 -8287 16259 -10046" class="C1" /><path d="M 707682 42943 c 3226 -896 3309 -890 8607 550" class="C1" /><path d="M 716289 43493 c 7708 2095 11792 4195 21488 11049" class="C1" /><path d="M 737777 54542 c 14139 9995 28531 19239 36836 23659" class="C1" /><path d="M 774614 78202 c 27513 14643 39339 22150 46290 29386" class="C1" /><path d="M 820903 107588 c 5296 5513 7181 8476 8386 13181" class="C1" /><path d="M 829290 120768 c 1427 5569 923 7999 -3500 16872" class="C1" /><path d="M 825790 137640 c -2139 4292 -4056 7794 -4260 7781" class="C1" /><path d="M 821530 145422 c -203 -13 -1338 -1279 -2522 -2813" class="C1" /><path d="M 233714 158139 l 0 0" class="C1" /><path d="M 208255 121927 c -2158 -5962 -2475 -7889 -2413 -14677" class="C1" /><path d="M 205841 107250 c 123 -13536 3822 -20944 13078 -26194" class="C1" /><path d="M 218920 81056 c 5830 -3307 23536 -10841 30663 -13048" class="C1" /><path d="M 249583 68008 c 14869 -4604 18709 -5943 24746 -8634" class="C1" /><path d="M 274329 59373 c 6300 -2808 15779 -7992 24459 -13377" class="C1" /><path d="M 298788 45996 c 7242 -4492 16078 -8900 21805 -10877" class="C1" /><path d="M 320593 35120 c 10591 -3656 16307 -2236 25337 6294" class="C1" /><path d="M 345930 41414 c 5726 5409 6734 6533 8758 9766" class="C1" /><path d="M 354688 51180 c 1037 1656 1247 2366 752 2542" class="C1" /><path d="M 355440 53722 c -1178 419 -25279 5705 -28306 6208" class="C1" /><path d="M 327134 59930 c -2942 489 -7929 2273 -15464 5533" class="C1" /><path d="M 311671 65463 c -2342 1013 -7283 3110 -10982 4661" class="C1" /><path d="M 300689 70123 c -3698 1550 -15722 7282 -26719 12737" class="C1" /><path d="M 273969 82861 c -19614 9730 -20157 9959 -28485 12066" class="C1" /><path d="M 245485 94927 c -4669 1181 -9265 2627 -10213 3212" class="C1" /><path d="M 235272 98139 c -2515 1555 -5548 5110 -6864 8049" class="C1" /><path d="M 228408 106188 c -881 1967 -2979 4242 -8989 9749" class="C1" /><path d="M 219418 115937 c -4312 3951 -8334 7615 -8938 8142" class="C1" /><path d="M 210480 124079 c -1082 944 -1116 911 -2225 -2152" class="C1" /><path d="M 819008 142609 l 0 0" class="C1" /><path d="M 703348 91373 c -296 -105 -11068 -3377 -23939 -7270" class="C1" /><path d="M 679409 84103 c -20785 -6287 -30802 -9804 -45332 -15916" class="C1" /><path d="M 634077 68187 c -1706 -718 -5943 -1788 -9414 -2377" class="C1" /><path d="M 624663 65810 c -11214 -1905 -15904 -3106 -36836 -9436" class="C1" /><path d="M 587827 56373 c -13249 -4007 -21294 -6711 -22581 -7591" class="C1" /><path d="M 565246 48782 c -2475 -1692 -4725 -6000 -4725 -9046" class="C1" /><path d="M 560521 39736 c 0 -2726 2148 -7201 4165 -8680" class="C1" /><path d="M 564687 31057 c 1986 -1456 4704 -2348 7149 -2348" class="C1" /><path d="M 571836 28708 c 2386 0 30201 8281 32529 9684" class="C1" /><path d="M 604365 38392 c 888 535 2824 1330 4304 1767" class="C1" /><path d="M 608668 40159 c 1479 437 4990 1686 7800 2776" class="C1" /><path d="M 616468 42935 c 2811 1090 10315 3163 16677 4605" class="C1" /><path d="M 633145 47540 c 14680 3329 22709 5867 34698 10970" class="C1" /><path d="M 667843 58511 c 1775 756 3591 1381 4035 1390" class="C1" /><path d="M 671878 59901 c 444 8 6375 1717 13180 3795" class="C1" /><path d="M 685058 63696 c 6805 2078 15013 4255 18240 4836" class="C1" /><path d="M 703298 68532 c 6966 1255 9925 2769 11831 6051" class="C1" /><path d="M 715129 74583 c 2438 4199 2323 8244 -348 12277" class="C1" /><path d="M 714780 86861 c -2055 3101 -8378 5597 -11432 4512" class="C1" /><path d="M 208255 121927 l 0 0" class="C1" /><path d="M 326999 83942 c -7216 -3810 -7897 -14115 -1242 -18803" class="C1" /><path d="M 325757 65139 c 1777 -1252 5050 -2140 20132 -5461" class="C1" /><path d="M 345889 59678 c 9905 -2181 20915 -4372 24465 -4869" class="C1" /><path d="M 370354 54810 c 12315 -1723 30141 -4847 32266 -5655" class="C1" /><path d="M 402620 49155 c 762 -290 3377 -1034 5809 -1654" class="C1" /><path d="M 408429 47501 c 2433 -620 6965 -2076 10072 -3235" class="C1" /><path d="M 418501 44265 c 6318 -2358 47519 -11791 51501 -11791" class="C1" /><path d="M 470002 32474 c 2689 0 5752 1148 7604 2850" class="C1" /><path d="M 477605 35324 c 3304 3037 4245 9037 2088 13302" class="C1" /><path d="M 479693 48626 c -2207 4364 -3614 4940 -22287 9132" class="C1" /><path d="M 457407 57758 c -9225 2071 -17744 3765 -18932 3765" class="C1" /><path d="M 438475 61524 c -1188 0 -6107 863 -10932 1918" class="C1" /><path d="M 427543 63442 c -4825 1055 -10951 2270 -13614 2699" class="C1" /><path d="M 413928 66141 c -4739 765 -16417 3912 -19872 5356" class="C1" /><path d="M 394056 71497 c -2969 1241 -59510 13697 -62172 13697" class="C1" /><path d="M 331884 85194 c -1594 0 -3382 -458 -4885 -1252" class="C1" /><path d="M 703348 91373 l 0 0" class="C1" /><path d="M 463019 84112 c -3499 -894 -8244 -3614 -10853 -6223" class="C1" /><path d="M 452166 77889 c -4348 -4348 -9645 -12930 -8263 -13386" class="C1" /><path d="M 443903 64503 c 379 -125 5690 -1327 11802 -2671" class="C1" /><path d="M 326999 83942 l 0 0" class="C1" /><path d="M 469362 60514 c 4270 1889 7692 1866 15308 -100" class="C1" /><path d="M 455705 61832 l 11113 -2443 l 2544 1125" class="C1" /><path d="M 515333 58267 c 21155 -362 39614 -1286 52182 -2611" class="C1" /><path d="M 567515 55656 c 3997 -422 4161 -388 17614 3662" class="C1" /><path d="M 585129 59318 c 8759 2637 13581 4339 13583 4794" class="C1" /><path d="M 598712 64113 c 8 1507 -2962 6652 -5458 9452" class="C1" /><path d="M 593254 73565 c -2150 2413 -3218 3133 -5975 4028" class="C1" /><path d="M 587279 77593 c -7361 2392 -17437 3232 -27565 2298" class="C1" /><path d="M 559714 79891 c -3551 -327 -12265 -751 -19366 -941" class="C1" /><path d="M 540348 78950 c -14724 -395 -21276 94 -33084 2469" class="C1" /><path d="M 507264 81420 c -4290 863 -10100 1813 -12911 2111" class="C1" /><path d="M 494353 83530 c -7455 790 -28955 1189 -31334 582" class="C1" /><path d="M 484670 60413 l 6724 -1736 l 23939 -410" class="C1" /><path d="M 440038 29381 c 11 -2885 362 -7174 783 -9532" class="C1" /><path d="M 440821 19848 c 1663 -9335 8495 -14790 22600 -18046" class="C1" /><path d="M 463420 1803 c 4452 -1028 26638 -1275 41423 -463" class="C1" /><path d="M 504843 1340 c 14570 801 31037 769 44650 -86" class="C1" /><path d="M 549493 1254 c 19401 -1219 22373 -1254 27026 -311" class="C1" /><path d="M 576519 943 c 9254 1875 11029 2677 14637 6615" class="C1" /><path d="M 591156 7557 c 1802 1967 3991 5049 4865 6849" class="C1" /><path d="M 596020 14407 c 1539 3172 5694 17938 5189 18443" class="C1" /><path d="M 601210 32850 c -577 577 -22119 -6456 -25517 -8330" class="C1" /><path d="M 463019 84112 l 0 0" class="C1" /><path d="M 562135 22257 c -5474 -150 -16246 -93 -23939 127" class="C1" /><path d="M 538196 22384 c -7693 220 -25728 472 -40078 561" class="C1" /><path d="M 498118 22945 c -25751 159 -26126 176 -28781 1374" class="C1" /><path d="M 469338 24319 c -1479 667 -3709 2211 -4954 3430" class="C1" /><path d="M 464384 27748 c -2220 2173 -2461 2261 -12373 4525" class="C1" /><path d="M 452011 32274 c -5560 1270 -10532 2319 -11050 2330" class="C1" /><path d="M 440961 34604 c -835 19 -939 -572 -923 -5224" class="C1" /><path d="M 575693 24519 l -3605 -1989 l -9952 -273" class="C1" /><path d="M 440038 29381 l 0 0" class="C1" /></g></svg>